<svg id="desktop" xmlns="http://www.w3.org/2000/svg" viewBox="0 0 3840 65.59"><defs><style>.cls-4{fill:#fff}</style><clipPath id="clip-path"><path transform="rotate(90 283.16 280.7)" fill="none" d="M123.88-2.46h318.56v566.33H123.88z"/></clipPath></defs><path d="M3840-1H0v45.59c240 0 240 20 480 20s240-20 480-20 240 20 480 20 240-20 480-20 240 20 480 20 240-20 480-20 240 20 480 20 240-20 480-20z" fill="#f3f3f9"/><g clip-path="url(#clip-path)"><path class="cls-4" d="M128.11 63.67s0 .12-.05.16c.15-.08 0 .06.23-.17.13-.08 0 .1-.07.17l.21-.06v-.09c.17-.18 0 .14.25-.07l-.13-.07.06-.06c-.08.05-.11 0-.1-.06s.06-.09.09-.08c-.13-.12-.31.31-.47.29-.02 0-.01.01-.02.04zm.26-.57l-.24.21v-.13c-.06.09-.18.11-.19.22-.15.18-.17 0-.29.21.1 0 .08 0 .23-.07a.3.3 0 0 1 0 .23s.13-.13.17-.13l.21-.27h-.09l.35-.24c.17-.28 0-.21 0-.34-.1.21-.09.05-.15.31zm-8.6-2.71s-.07.06-.1.09l.24.14c0-.09 0-.22.11-.24s-.08-.07-.15 0l.09-.11c-.15.12 0-.21.08-.28l-.5.51c.03.1.16-.14.23-.11zm-4.83-2.97a.1.1 0 0 0 .08-.07zm4.48 3.23l-.15.16a1.2 1.2 0 0 0 .15-.16zm2-2.65l-.08.08zM118 60.74zm4.72-3.35l-.22.11c.07-.08 0-.09.08-.17s-.07 0-.09.07c-.21.2-.23.32-.44.45 0 .18.08.06.18 0l.3-.28zm-5.51-.65zm.06-.1v.08s.02-.07 0-.08zm2.26 3.86l-.11.15.12-.11s-.01-.02-.01-.04z"/><path class="cls-4" d="M119.93 60h.11l.11-.11a1.71 1.71 0 0 0-.22.11zM118 61c-.2-.07.21-.27.16-.39s-.16.14-.22.16c.21 0-.27.45-.09.46-.16.24-.26.21-.27.12.08-.28.15-.15.3-.38-.08 0-.1.05-.2.17-.06-.1-.35.2-.22-.17-.1 0-.16.14-.27.24-.15.26 0 .19-.06.41a.37.37 0 0 1 0-.11v.09a.33.33 0 0 1 .19-.26s.07 0 0 .09h-.07c0 .11.2-.14.16 0a.63.63 0 0 1-.08.11c.15-.15.19-.11.33-.2l-.19.24c.22-.26.31-.1.31.1a.21.21 0 0 1 0-.13c.09 0 0 .16-.07.29.17-.19.09.29.32.05l1.08-1.11h-.08c.1-.24.06-.22.24-.4-.12.08-.21.27-.29.24.1-.1.26-.35.2-.42a11.94 11.94 0 0 0-1.17.92c.1-.18-.06-.21-.11-.29.13-.17.21-.19.28-.2a.55.55 0 0 0-.11-.1zm.77-.37s-.01-.01 0 0z"/><path class="cls-4" d="M118.36 60.72l.01-.02-.03.01.02.01zm1.36-.63l.09-.09s-.09.07-.09.09zm-.14.32v.07a.28.28 0 0 0 0-.07zm-1.4-1.41z"/><path class="cls-4" d="M118 60.56c.07 0 .15-.26.25-.21.13-.08.21 0 .29.08s0 .15-.12.3a.33.33 0 0 0 .26-.16c0 .07.14 0 .14.05 0-.11.25-.3.08-.24 0-.17-.15 0-.21 0s.15-.12.14-.17-.16-.25-.36.12c-.06 0 0-.09 0-.16-.3.33-.21-.34-.48.16 0 0 .08 0 .18-.05zm1.59-.51zm-.03 1.88l-.22.3c-.19 0-.19-.13-.33-.2 0-.05 0-.07.07-.07s-.21-.17-.36-.06a.19.19 0 0 1 0-.24h-.08c-.01 0 .06 0 .11-.1s.2-.4.3-.33c-.12.29-.09 0-.24.3 0 0 .1-.1.12-.13s0 .1 0 .17 0 .08.16 0c.09 0-.14.22-.08.25l.21-.28v.11c.2 0 .29-.53.54-.6a.81.81 0 0 0-.17.54s-.24.13-.25 0c-.06.28-.12 0-.24.26.12-.11.19-.09.2 0 0 .06.25-.23.25-.07s0 .1-.06.16.11-.08.07-.01zm-.12 0s-.02.07 0 .01zm8.25.71s.01 0 0 0zm-4.18-3.11s.01 0 0 0zm1.27-.53h.09-.09zm2.61 3.37l-.02.01.02-.01zm-1.78-1.83a.24.24 0 0 0 0 .08.31.31 0 0 0 0-.08zm-.84-1.54v.01l.01-.01h-.01zm-1-.5zm-.49.85zm-.64-1.2h-.07a.06.06 0 0 0 .07 0zm.66.94s0 .02 0 0zm4 4.54l-.03.03.03-.03zm.39-.33zm-1.86-1.92a.51.51 0 0 1-.07.15c.06-.05.16-.19.07-.15zm-.02 3.83l.09-.07s-.08.05-.09.07zm.09-.07h.07zm-1.97-1.6s-.01 0 0 0zm3.8-.18c.06-.06.31-.09.22-.22.16-.2.14 0 .21-.06s.11-.12.16-.2-.09.06-.11 0 .15-.14.15-.08c0-.14.18-.12.19-.25a.81.81 0 0 0-.62.23c.11 0 .22 0 .21.12l-.16.16c.07-.2-.06-.11-.11-.18l.06.2c-.05.19-.12.19-.19.19s.01.06-.01.09zm-1.27 1.47l-.01.01.02-.01h-.01zM120.29 62l-.05.06zm.28.17zm2.61-4.01zm-2.6 3.99zm1.82.2v-.07a.09.09 0 0 0 0 .07zm-.1-.45zm4.04-1.39s-.02.01 0 0zm-5.79 1.67v.06zm2.88-.48zm.05.23c.11 0 .14.11.29-.08a.29.29 0 0 1 .06-.29c-.07 0 0-.15-.07-.13s-.11.17-.19.21.11-.15.1-.21h-.09v.07l-.15.18c.2 0-.15.32.05.25zm-.05.07h-.05.05zm.29.63zM120.19 60c0 .06 0 .23.06.07v-.08zm5.45 2.75s-.01 0 0 0zm-1.8-1.19h-.06zm1.56 1.53a.85.85 0 0 1-.08.17s.08 0 .12-.06-.05-.03-.04-.11zm.05.11z"/><path class="cls-4" d="M120.18 59.9v-.08c-.13.13-.3.18-.38.26s-.14 0-.17 0 .08 0 .12-.08.12-.4-.1-.23h.06l-.32.26c0-.16.16-.13.24-.24-.19.11 0-.38-.23-.12.09-.17.25-.47.17-.49-.06.23-.11.11-.19.34-.08.08 0-.11-.12 0v-.07c0-.33-.24.08-.36.19s-.17-.15-.3-.18c.06-.12.21-.46.16-.47-.11.15-.25.16-.37.36s.16-.13.23-.15c-.08.23-.11.21-.13.36 0-.1-.25 0-.19-.22 0-.16.26-.67 0-.43l-.13.09v-.06c-.09-.08.06-.29-.14-.17s-.18 0-.26.07c.07-.19.1-.17.19-.28-.08-.12-.35.1-.53.28v-.14a.82.82 0 0 0 .27-.31c-.06 0-.09.1-.13 0l.24-.31c0-.25-.23.37-.13 0 0 0-.14.13-.21.26v-.21c-.09.17-.18.13-.24.13s-.06.2 0 .15c-.08.13-.16.16-.2.14.17-.36-.26-.07 0-.46h-.65c0-.12 0-.16.07-.3-.12-.07-.38.26-.46.1s.06 0 .12-.1c-.16.1-.08-.22-.26-.19 0 0 .07-.07.09-.11s-.12.1-.18.14 0 0 .06-.08c-.17-.3-.6.09-.85 0 .07 0 .21-.18.26-.28h-.07c-.08.11-.14.08-.22.15a.22.22 0 0 1 .06-.15c0-.31-.42.33-.54.12l.44-.38v-.19l.19-.17c0-.16-.18.12-.1-.07 0 0 .05 0 .1-.11s-.09 0-.14.05c.27-.31.48-.21.64-.24s-.06.08-.08.11 0 .14.11.11 0-.13 0-.16.08-.12.12-.12c-.08.18.14.14.07.38.2 0 .2-.48.33-.32l-.05.23c.17-.11.36-.19.45-.09a.59.59 0 0 0-.08.2c0 .13.24-.08.19.15a1.5 1.5 0 0 1 .6-.31c-.11.28-.26.15-.39.3h.1c-.06 0-.14.06-.25.19.06.1.21-.12.32-.15s0 .12 0 .14l.1-.17h.2c0-.09.08-.25 0-.27s-.08.12-.12.1 0-.12.06-.22a.34.34 0 0 0 .25 0l-.07.17c0 .08.18 0 .2.09l-.06.08c.06.1.2 0 .19.23a6.54 6.54 0 0 0 .51-.41c.14-.19.08.38.32.13 0 0-.14.13-.21.19s.22-.17.12.06c-.09-.14-.09.18-.18.21a.2.2 0 0 0 .22 0c-.1 0 .2-.29 0-.24.17-.15.32-.17.37-.05s-.07.15-.06.2l.11-.12c0 .05-.17.12-.12.21.22-.18.19.28.47-.13 0 .21-.22.1-.24.37s-.12-.1-.26.1c.09 0-.08.2-.05.22l.14-.1c.22-.15.33 0 .48.08.24-.16.49-.42.62-.32-.11.1 0 .18-.18.37 0 .15.14 0 .2 0s0 0 0-.12.17 0 .16 0 0 0 0 .05.09-.1.17-.12c-.08.17.08.11.08.21l.19-.19c-.12.13 0 .09 0 .23.11-.07.25-.24.3-.15s0 .14-.09.29.43-.29.42 0c0 0-.11.12-.1.18s.09 0 .13 0h.06a1.62 1.62 0 0 1 .41-.32c.1-.17 0-.15-.09-.12l-.13.15c.13-.27-.11 0-.08-.1.24-.27.35-.1.56-.23s0-.39-.15-.42v.13h-.06l-.06.21c0-.06-.11 0-.15-.08s-.06.28-.07.22-.13.07-.18 0 .06.06 0 .14c0-.26-.09-.15 0-.42-.15.29-.13 0-.28.19l-.19.12c.06-.28.21-.2.18-.43s-.27.21-.37.18c.13-.16.28-.26.35-.22V57c.08-.09.17 0 .21 0-.19.15 0 .08 0 .26.1-.16 0-.17.17-.26-.06 0-.08 0-.12-.13.12.17.48-.49.54-.26-.1 0-.11.25-.15.33a.4.4 0 0 0 .18 0l.11-.25c.15-.05-.12.47.12.28s-.06-.1 0-.12c.22-.07 0 .34.05.59a1.89 1.89 0 0 1 .25-.32c-.1.13-.11.22-.22.3s.11 0 .18 0 .15-.18.22-.25-.1.13-.15.15-.07.29.07.09a.83.83 0 0 1-.41.34c-.08.06-.07 0-.1 0a1.06 1.06 0 0 1-.18.37v-.06c0-.06-.06 0-.1.05s0 .16-.06.27h.07l.56-.54c.12 0 .06.15 0 .28l.12-.17c.06.06.08.15-.09.34v-.06h-.05.18c-.27.18-.2.31-.4.6h.17c0-.13.09-.14.14-.17-.09.17.1.06.12.1 0 .08.08.1.15.09s.27-.3.4-.45c0-.11.05-.15.11-.26s0-.08.06-.13a.48.48 0 0 0-.42.2c0 .13.11-.07.09 0s-.18.06-.24 0l.06-.16h-.12c.08 0 .15-.21.24-.2.08-.14-.09 0-.11-.09l-.14.18c.07-.1 0-.18.15-.28l.21-.09v-.15h.13l-.09.08c.24 0-.18.4.11.28s.26-.19.32-.07c-.1 0-.1.16-.21.27s.15 0 .24-.1c-.06.13-.1.24-.16.18-.16.25.11 0 0 .27.21.13.69-.72.74-.25l-.08.1c.24 0 .25.16.44.17l-.06.33a.81.81 0 0 0-.29.33c.11-.3 0-.25 0-.43a.67.67 0 0 0-.08.18v-.14c0 .02 0 .16-.08.16v-.2c-.14 0-.3.36-.35.22.12-.13.29-.32.35-.33s.12-.05.14-.16c-.21.17-.13 0-.31.06 0 0 .06-.07.09-.07l-.07-.17c-.05.15-.19.07-.3.27.08.17.12 0 .2.23a1.36 1.36 0 0 0-.39.33 3.4 3.4 0 0 0-.36.57c.21-.19.14 0 .31 0s.1-.26 0-.24l.15-.07-.06.07.14.18s-.12.08-.19.15 0 .08 0 .15c.1-.17.18-.29.2-.27s.06.31 0 .53c.09-.19.29-.26.44-.41-.12.18 0 .15 0 .26a2.53 2.53 0 0 0 .39-.69c-.2.14-.17.16-.38.4l-.25.1.14-.15c0-.11-.22.07-.08-.15s.13 0 .26-.12v-.1c.21-.16-.1.23.09.14s0 0 .13-.11-.19 0 0-.34c.14-.1-.08.47.19.2.07.1.22 0 .32-.14 0 .13.13 0 .18 0l-.07.09h.24c-.14.15-.07 0-.14-.06l-.1.17c.07-.24-.17 0-.31.15.16-.1.16.17.4-.15l-.07.2.06-.05c-.06.15-.22.32-.31.32a.24.24 0 0 1 .06-.1c-.08.05-.19.16-.23.08l.09-.06c-.07-.07-.19-.06-.33.09a.75.75 0 0 0 .3.31c.28-.35.46-.54.72-.88.12 0 .25 0 .23.18v.07c0 .06 0 .06.1 0s-.15.16-.16.23h.19c-.11.15-.2.09-.25.07s0 0 .06-.05-.29.11-.15-.14c-.06 0 .16-.13.08-.2s-.15.07-.2.14 0 .18-.1.26c.05 0 .14-.08.14 0s-.23.13-.16 0a1.27 1.27 0 0 0-.44.59c.08-.14.26-.06.27-.3.16-.14.25-.08.39-.14h.11a.69.69 0 0 0-.15.15l.27-.16c-.17.12 0 .14 0 .23.1-.13.21-.2.22-.31s-.07.06-.12 0l.2-.17.15-.15c.08.07-.31.38-.09.29l.15-.25c.1.12.07.5.23.45a1.71 1.71 0 0 0-.33.48c0-.07-.09-.11-.16-.13s.26-.23.28-.14c.25-.41-.31.13 0-.27 0-.24-.37.31-.34 0-.12.17-.09.06-.21.21-.16.32.18.11.19.27a.15.15 0 0 0-.08.05c0 .09.08.07.16 0 .19-.13 0 .16-.06.26s.06.08.14 0v.21l.13-.19s0 .15.09.06l.13-.18-.07-.13c.1 0 .14-.16.22-.16-.2.15 0 .13-.13.3l.11-.07c0 .12.09 0 .11 0 0-.14.08-.28-.07-.2a.73.73 0 0 1 .3-.11c.1 0 0 .12.07.17-.14 0-.35.55-.43.31.14-.24-.11-.06-.2 0s-.15.14-.13.25c0-.09.25-.25.24-.1l-.21.27.06.09c-.1.2.11 0 .1.18.11-.07.22.12.35-.21-.07.21.14 0 .22 0v-.16a1 1 0 0 0 .4-.29.74.74 0 0 1-.14.22c.1.1.21.3.44.12.07.08-.15.41 0 .36s.17-.27.19-.13-.22.15-.12.19c.21-.17 0 .21.26.09 0 .11.08.13-.06.28a.14.14 0 0 0-.22-.05c.08-.09 0-.13.13-.17s-.14.06-.17-.09c0 .06-.09.21 0 .17-.17.23-.26 0-.38.31.08.09.46-.36.36-.07-.14.12-.1 0-.32.17v.14l.17-.13c0 .3.28-.15.47-.18.06-.21.31-.38.34-.51s.12.09 0 .32c-.27.08-.19.23-.48.36 0 .1-.27.31-.22.39.2-.1.12-.21.25-.22a.25.25 0 0 1 0 .08c.13-.09 0 .07.16 0 0 .18.18-.11.11.08.11-.18.14-.11.25-.2s.15-.35 0-.41c-.11.12-.16.2-.25.23h.07l-.09.06v-.11c.15 0 .22-.21.35-.32 0 .11.09 0 .1.08a1.08 1.08 0 0 0-.14.62s-.08.19-.12.25l.12-.07s-.07 0-.07.09.23-.19.31-.18c-.07.11-.25.23-.25.31s-.21.38-.07.34a.14.14 0 0 1 .11 0v.15c-.18.15 0-.15-.2 0l-.14.17s-.13 0-.22.09.07 0 .16 0a.63.63 0 0 1-.19.18l.08-.1c0-.19-.23.09-.28 0-.19.11-.08-.17-.31 0l.09-.07-.53.24-.05.07-.28.13a.36.36 0 0 0 0 .11c.08-.07.11.06.23-.13 0 .14.13 0 .1.11 0-.15.17-.14.25-.23-.07.12.08 0 0 .19s0-.12 0 0 0 .19-.17.28c.16 0 .23.08.42 0v-.1c0 .06.14.09.09.17a.42.42 0 0 0-.13 0c-.13.17.08.06 0 .17l.31-.2v-.05c.1-.08.1.12.15.19-.22.21-.11-.07-.25 0s-.14.25-.24.27 0 .08.07 0v.06c-.21.18-.27 0-.47.19l-.57.1c0-.13 0-.16-.13-.14s-.1 0-.16.09-.09.13-.09.19-.08 0-.1-.06.1-.09.18-.2c-.09 0 .09-.23-.06-.15 0 .1-.19.21-.27.26-.12.11-.14.1-.07 0s.07 0 .15-.1 0 0-.1 0l.09-.08h-.11a4.81 4.81 0 0 0-.38.39c0-.12-.05-.06-.1 0 0-.12-.13-.11-.21 0 0-.11.69-.47.4-.54-.09-.06-.29.28-.42.35 0-.05-.11.07-.18.09s0 .09.06.06c-.11.12-.07-.07-.17 0 .19-.18 0-.13.09-.21s-.17-.08-.32 0c.14-.29-.11 0-.1-.2 0 0 .06 0 0 0 .17-.13 0-.15.16-.24 0 0-.06.08 0 .07a.27.27 0 0 0 .17-.13v-.2h.05v-.27.1c-.06-.17-.27-.15-.35-.25-.35.45-.4 0-.68.24a2 2 0 0 0 .35-.45s.2-.17.22-.1-.06.2-.15.27c.15 0 .13-.22.28-.37-.16-.05-.42.18-.58.23v-.06l-.13.06c0 .07-.16.33-.16.2 0-.14-.13-.06-.17-.12l-.15.13c0-.06.15-.35.25-.53-.08-.08-.29.12-.45.21.06-.14-.06-.27.12-.37-.16.06-.6.74-.49.27l.12-.09c-.15-.07-.5 0-.48-.13.34-.4.13-.55.39-1-.06.1-.13.1-.17.15s0-.12-.05 0-.33.42-.11.31c-.25.26-.47.45-.57.36l.12-.18.05.12c.08-.14.12-.1.18-.15-.1-.21.3-.41.11-.49-.09.1 0 .06-.12.08s.11-.12.08-.14l-.13.12c.14-.34.23-.13.31-.37s.32-.1.45-.34c0-.16-.37.36-.42.18v-.1a1.72 1.72 0 0 0-.27.27v-.13a6.28 6.28 0 0 0-.51.42c.28-.09 0 .26.3.2-.08.06-.23 0-.4.28l.12-.18c-.12.06-.23.12-.26 0l.11-.07c-.17.07 0-.37-.24-.12h.07c.07 0-.15 0-.18-.07l-.29.23c.06-.09 0-.14.12-.26s-.2.06-.27.08c0-.24.12 0 .29-.29-.06-.15-.22-.15-.38 0a.28.28 0 0 1 0 .13v-.09l-.09.11a.32.32 0 0 1 .15-.24s-.21.15-.14 0 .16.07.25 0c-.21 0 .08-.44-.19-.4 0-.06.13-.15.1-.17s-.17.23-.28.35c.11 0 .09 0 0 .22l-.08.09v-.14l-.13.2c.14-.22.18-.42.08-.37a1.34 1.34 0 0 1-.19.43c-.21.19.06-.28-.16-.08 0-.06.14-.07.12-.16s-.14.13-.2.17c.14-.16.22-.3.39-.5h.16v-.2c.09 0 .18-.17.23-.24 0-.26-.26.22-.31.12-.11.11.06.08-.08.17-.06-.07-.09.11-.22.14l.07-.08c0-.12-.07 0-.11 0s-.35.65-.48.59l.07-.1 1-1.46a.93.93 0 0 1-.36-.41c.14-.32.26-.18.33-.32V60c-.08.12-.18-.05-.25.21.18 0 .15.16.43 0s-.19 0-.13-.32h.12l-.16-.27-.06.06a.53.53 0 0 1 .06.13c-.06-.07-.22.06-.36.28h-.07zm-4.93-2.7v-.08a.56.56 0 0 1 0 .08zm6.84 2.86c-.08-.09-.14-.22-.22-.3-.09.54-.18.94-.46.75a.15.15 0 0 0 .15.13c.14-.12.65-.58.68-.63s0 0-.06-.08zm-.38.76c0 .09.07 0 .14-.1h-.08a.22.22 0 0 1-.06.1zm.19-.18zm-1-.79h-.03zm0 .28l.1-.13a.87.87 0 0 0-.14.13zm0 .75c.14-.18.22-.14.36-.36a.13.13 0 0 0 0-.11l-.06-.06-.07.09s0 .1-.1.23c.12-.33-.18.17-.2.06-.07.14.02.2.08.15zm5.1 2.63l-.08.13-.11.07c-.05-.1.11-.44-.14-.24a1.7 1.7 0 0 1 .16-.35.14.14 0 0 1 0 .06c.46-.18-.19.47.17.33zm-.6-1c-.44.26-.66.27-.74.19a.92.92 0 0 0-.1.43l-.16.15.08-.15-.17.11c-.07.13 0 .14 0 .26 0 0 .27-.16.38-.25V63c0 .06.13.1.2.09s.09-.27-.06-.09c.09-.14.17-.08.22-.25s.18.09.18.19l-.14.22c0 .12.22-.23.19-.06-.11 0-.16.24-.23.22s-.16.22-.09.25c.26-.25-.07.22.16 0 0 .11-.16.14-.12.23a1.33 1.33 0 0 0 .41-.41c0-.11-.27.21-.29.12l.37-.27v-.08s.09 0 .16-.1l.1-.09c-.06 0-.11-.09 0-.19l.08-.09c0-.11 0-.07-.12 0s-.22.07-.14-.07l.09-.08a.34.34 0 0 1-.28-.03zm-2.15-1.82c-.21.41-.38.78-.14.84-.06.3.4-.19.35.16a2.18 2.18 0 0 0-.43.37l.14-.06c-.16.19 0 .13 0 .17l-.21.22c0-.09 0-.16-.07-.11s.11-.37 0-.34.06.19-.17.42c.12-.08 0 .09.11.07-.13.08-.17.22-.28.31h.12c0 .06-.21 0-.27.29.09-.06.1.11.23-.07v.06c0 .08.2-.24.21-.08.06-.09.09-.16 0-.16s-.14.14-.21.13 0 .06.18-.2-.2 0 0-.23v.09c.12-.18.16-.14.26-.29s0 .19.13.06.21-.34.21-.2c-.13.3.06.35.14.35l.13-.08c.07-.11-.11 0 0-.17h.11v.07s.09 0 .14-.05c-.11.11-.13 0-.25.22s0 .13 0 .12c0 .13.21-.16.27-.21.24-.19.08-.27.22-.46l.29.05a.74.74 0 0 0-.17.18c0 .12-.1.14 0 .18.17-.25.21-.09.36-.2-.05.12-.06.15-.11.11-.11.17 0 .16 0 .19a.75.75 0 0 1 .13-.06.37.37 0 0 1 .21-.23c-.05-.1 0-.36-.21-.23l.07-.07c0-.2-.4.16-.22-.18.08-.12 0 0 .12-.21l-.16.09.07-.07h-.14l-.41.31a.47.47 0 0 1-.12.15h-.07v-.23l.11.05a.86.86 0 0 0 .2-.39s.1-.09.09-.12-.13 0-.18.15-.06-.47-.38-.32c.21-.08 0-.24.19-.21.06-.27-.21.16-.28.07s0 0 .17-.1c-.09-.18-.47.18-.57 0l.1-.17zm-.41 0h-.12l-.16.08c0 .1-.08.31-.21.35 0-.07.09-.17.14-.19s0-.29-.16 0c.24-.18-.18.33 0 .2-.14.14-.13 0-.21.09a.56.56 0 0 0 .17-.42h-.17c-.08 0-.18.23-.14.31s-.1 0-.09-.07.07 0 .1-.08 0-.17 0-.24a.16.16 0 0 0 0 .06l-.13.11c.11 0 0 .09-.08.18.12-.18 0 0 0-.06l-.08.22c-.08.08 0-.19-.1 0 0 .14.11.13.23.13l.06-.18c.16 0-.1.3 0 .36.13-.11.17.1.35-.17-.07.07-.09.28 0 .18s.35-.17.38-.31-.17.08-.09-.09h.1v-.17c-.01.08.07-.06.19-.26zm-.56-2.49z"/><path class="cls-4" d="M127.32 63.68c.06 0 .1 0 .19-.13-.11.14-.1-.04-.19.13zm-.05.18s.06-.09.09-.08h-.08zm-.67.98c.1-.08.17-.13.2-.08-.24.34-.14 0-.4.33 0 .09.3-.18.39-.16.08-.16 0-.35-.19-.09zm-.37.39l.1-.04.02-.02-.11.04-.01.02zm1.23-3.68c.08-.11 0 0-.07 0s.01.04.07 0zm-9.82-6.24l-.47-.09a2.81 2.81 0 0 0 .47.09zm8.11 6.06c.17 0 .34-.19.48-.16 0-.31-.42.21-.37-.09zm.64-.84c-.12.22-.24.19-.33.35.1 0 .17-.17.21-.11zm-1.96 3.67l-.11.08.05-.02.06-.06zm1.38-3.8l.05-.04-.01-.1-.04.14zm.09-.08zm-1.82 4.29l.01.07.08-.08-.09.01zm.41-1.36h.08s-.01-.15-.08 0zm1.08-3.15l-.1.04-.01.02.1-.04.01-.02zm-1.78 3.5c-.08.18-.1 0-.15.17.07.01.11-.09.15-.17zm.21-1.46zm0 0zm-.29-.14c-.07.07 0 .06 0 0s0 0 .08-.07v-.06s-.04.07-.08.13zm.89-3.27V59c0 .12.18-.14.25-.16-.14-.03-.12-.09-.25-.11zm.2.11zm-1.74 4.71l-.17.16.04-.02.13-.14zm1.48-4.96v.08c.1-.12-.01-.09 0-.08zm-1.33 2.62v.11c0 .04.14-.32 0-.11zM124 59a.33.33 0 0 1-.1.21c.1-.07.22-.28.1-.21zm-.91 2.11l-.01.05.1-.05h-.09zm-1.04 1.94c.15-.11.16-.41.33-.47 0-.24-.13.21-.2.13a.59.59 0 0 1-.13.34zm.13-.34zm-.18-1.43h.06zm-.18 1.37l.23-.17c-.15.12-.28 0-.41.25 0 .07.1.05.18 0zm1.66-4.65l.09-.07v-.06c-.03.05-.16.2-.09.13zm.06-.14zm-1.27 3.41h.09c.09 0-.03-.11-.09 0zm.75-3.11h.08l-.08-.03v.03zm-.05-.56l.01-.05-.1.05-.01.05.1-.05zm-2.4 4.66c0 .05.18-.13.2-.18h-.08c-.09.19 0 0 0 .08zm.05-5.59c.09-.12.14 0 .08.12s-.12.07-.13.16l.24-.26c0 .24-.29.35-.4.43.08.09.22-.09.32 0s0-.13 0-.2.15-.06.23 0a.32.32 0 0 1 .16-.24.39.39 0 0 0 0-.09c-.09 0 0-.17-.07-.2-.16.37-.17 0-.28.09h-.09a.34.34 0 0 1 .12-.13c-.06 0-.14 0-.19.09l-.2-.1a.25.25 0 0 1 0-.07l-.87-.44v.21c-.19.19 0 .08-.09.28s-.1 0-.1 0c-.07.1-.09.22-.16.35s.33-.32.39-.18-.17.22-.09.24c.19-.08-.08.34.19 0l-.11.19a.31.31 0 0 1 .29-.06c.27-.13.11 0 .33 0l-.2.18c0 .12.16-.11.18-.06s-.09.18-.15.19l.4-.22c.23-.17.17-.2.2-.28zm.11.42zm-1.15-1.39h.06a.05.05 0 0 0-.06 0zm1.68 1.16c0-.12.1-.12.15-.19l-.13-.07-.14.21zm.06-.42a.43.43 0 0 1-.11.12h.07a.25.25 0 0 0 .04-.12zm-2.2 3.84l-.02-.01-.07.04.09-.03zm-.12-.51c0 .12.06.07.09 0s-.04-.01-.09 0zm-.63 1.21l-.09.03v.02l.09-.05zm.37-4.77z"/><path class="cls-4" d="M119.33 56.3c0-.29.19-.13.29-.42h-.12v-.07h-.1a1 1 0 0 1-.12.28c-.09-.12.05-.18.05-.39h-.15l-.51-.17c-.14.06-.08.26-.24.42.09 0 .16.27.31 0 0 0-.07.11-.06.15l.17-.19v-.09c.17-.19.33 0 .29.11s-.23.3-.3.08c0 .07-.06.2-.11.22.27 0 .27.2.6.07zm-1.77-.77zm.04.06l.21-.21-.14-.05-.1.18s.13-.11.11 0zm.4-.32c-.11 0-.21.26-.23.38s.09-.25-.07 0 0 .11.08.09zm.43.37l-.07.08.04.04.03-.12zm-.07.08l-.08.18zm-.12-.18v-.06zm.03.09l.01-.03-.04-.05.03.08z"/><path class="cls-4" d="M118.33 55.67c.07-.15.14-.32 0-.31l-.1.24zm-.22 4.87l-.1.05-.01.03.1-.06.01-.02zm-.21-.29l-.07.06zm-.76.89c0-.18.18-.15.12-.28s.21-.29.22-.2-.09.06-.13.21c.11-.13.07 0 .16-.22a3.4 3.4 0 0 0 .32-.34c-.12 0-.15-.23-.37 0a5 5 0 0 0-.51.89c-.04.06.05.16.19-.06zm-.14.39h.06c.06 0 0 .01-.06 0zm.83-2.9s-.11.08-.15.17h.11s.01-.11.04-.17zm.01.14zm0-.18s0 .02 0 0zm.25-3.23c0-.09 0-.06 0 0s-.03.02 0 0zm-1.51-.29V55q-.01.06 0 .07zm-1.74 2.4v.05zm-.03.05c-.06.07-.06-.09-.14 0l-.08.05s.14.05.22-.05z"/></g></svg>