<svg id="desktop" xmlns="http://www.w3.org/2000/svg" viewBox="0 0 161.04 177.19"><defs><style>.cls-1{fill:#ff6f5e}</style></defs><path class="cls-1" d="M159.34 80.24zm-2.17 7.34l.45.22zm-1.6.55h-.06c.11.03.22.08.06 0zm1.17-3.83l-.08-.07a.3.3 0 0 1 .08.07zm2.81-6.55h.11zm.28.19a.76.76 0 0 1-.27-.18c-.24-.11-.28-.09-.19 0 .27.15.26.08.46.18zm1.11-4.21l.1.08zm-17.56 3.94h-.06zm16.96-3.53l.41.26zm-2.72 13.67l.16.09zM154.84 89l-.34-.15zm-9.17 2.63l.18.05-.32-.12zm6.66-2.07l.16.07c.16 0 .21 0 .23-.1l-.55-.23z"/><path class="cls-1" d="M138.81 86.28l1.18.23c.29.78-.94.66-.21 1.52l-.24-.12c-.29 0 2.24.88-1.15.72h-.12s.24.11-.08.08l.74.07c.25.18.77.44.81.58a3.86 3.86 0 0 1-.55-.13l.1.36-.76-.13c.37.22 1.93.64 1 .63 1.11.22.61.31 1.17.44l-.53-.09a1.46 1.46 0 0 0 .84.75s2.44.11 3.63.33c-.34.09.12.09.49.16l-.26-.09a11.37 11.37 0 0 1 1.18.18h-.19.09l-.27-.08c-.15 0-.26-.08-.21-.1h.07c-.09-.08 0-.12.1-.14l.57.18c-1.06-.42 1.8 0 1.87-.07.74.14-.11-.27.29-.28.25-.13.85.19 1.37.26s-.66-.2-.68-.26l.82.12c0 .11.4.18.62.24s1.22.1.12-.34c.59 0 1 .2 1.12.15a6 6 0 0 1-.64-.16c.52.12-.11-.07-.23-.08-.44-.29 2.22.24 1-.23l.22.08c-.9-.36-1.79-.66-2.27-.91l.42.1-.36-.22a4.43 4.43 0 0 1 .66.22c-.38-.27.18-.24.35-.33l-2.52-.81c.62.1 1.86.34 1.08 0l.85.25c1.67.4-.62-.44-.1-.34l.94.24-.06.11a13 13 0 0 1 1.43.29h-.14c-.44-.19-.72-.38-.66-.45s-.44-.43.57-.22l-.89-.43.61.09.72.31c-.1.12.07.48 0 .67l.33.14c0-.1-.23-.35-.14-.39a6.37 6.37 0 0 1 1.42.53l-.69-.36c.07-.37 0-.39 1-.38l-.37-.13c-.19-.16-.36-.32.23-.09.21-.15.76-.17 1.73.11l-.84-.41c.07 0 1.38.48.2-.07l-.33-.26c.1 0-.37-.29.15-.14h.1-.07c.44 0-.75-.35-.2-.28s-1-.55-.81-.54l1.24.48c.75.18-.45-.4-.36-.6a11.37 11.37 0 0 1 2.41 1 5.65 5.65 0 0 1-1.18-.74 7 7 0 0 1 1 .47c.58.15-.38-.26-.32-.32-.84-.43-2.19-1.09-2.23-1.15l-.28-.09c-.42-.3-.58-.49-.11-.39l.43.21-.17-.21.55.26-.1-.23h-.16c0-.07-.19-.27.13-.2l.3.15c1 .27-.13-.48-.12-.74l.6.33c.65.23-.94-.49-.59-.42l.76.37c-1-.57.26 0 .66.14l-1-.47h.26a9.87 9.87 0 0 1 1.8.83l-.75-.46.88.42c-1-.56.19 0-.31-.33.34.15.52.27.67.31l-1.15-.77.5.37-1.28-.66c-.92-.58.21-.06-.11-.31l.35.24c-.25-.27.3 0 .61.08a3.36 3.36 0 0 1-.76-.38c-.05-.07.46.21.62.25-.85-.44-1.26-.75-.82-.62l.31.16c-.13-.09-.34-.21-.12-.14l.94.5-.87-.52c.28.09-.37-.32.26 0l.18.12.39-.2.76.38c-1-.56.48 0-.82-.63.74.31-.37-.49 1.06.3.23-.15-1.12-1-.28-.88 1.29.56 1 .1 1.23 0a12.71 12.71 0 0 1-.91-1.59c1.82.73-.32-.81.76-.5l-.64-.43c1.15.46 0-.49 1.11-.1a2.28 2.28 0 0 1-.37-.32 4.12 4.12 0 0 1-.6-.3c.33.11 0-.21.87.28l.08.06c.85.48-.3-.4.47 0l-.93-.48h.21l.16.12c-1.77-1.6 1.25-.18-.35-1.66 1 .62-.48-.38.61.23 1.43.67-.18-.37-.49-.67l-.19-.12.22-.09c1.32.89-1.07-.76 0 0 1.26.18.53-1 1.28-1.15l-.36-.19c.14-.08-.2-.48.41-.24s-.77-.73-.8-.8c-.54-.46.71.16.62.17-.1-.2-1.28-1-.66-.88 1.18.64-.89-1.08.41-.31l-.11-.07c1 .36-.41-.75.54-.46l.17.12-3.66-2.8-4.38-2.5-3.74-1.75.13 1.51h-1.88l-.73 2.34.9.72c-2-.58-.27 1.07-1.76.82l.85.49c0 .15-.54-.15-.71-.21-.46 1.28 0 3.1-1.62 3.59-.63-.2-.45.3-1.1.06.88.91.68 1.27.39 1.57l-.09-.06.08.25-.24-.12c.68.58-.23.49-.67.56l-.09-.06c-.84 1.29.22 3.34-1.66 4.17-1.75 0-.06 1.67-1.61 2-.97-.42-.94 1.53-.55 1.81z"/><path class="cls-1" d="M139.19 89.19c-.4-.13-.25-.08 0 0zm11.72.7h-.02l.56.18-.54-.18zm-.32 1.84c.15 0 .06-.07-.1-.12s-.01.06.1.12zm-10.9-1.47c-.05 0 .19.09.47.14a.49.49 0 0 1 0-.11zm5.43 1.38l.32.11a1 1 0 0 0-.32-.11zM21.16 121.17zM19 128.51l.44.23zm-1.62.55h-.05c.1.03.21.08.05 0zm1.17-3.84l-.08-.06a.18.18 0 0 1 .08.06zm2.81-6.55h.11zm.28.19a.77.77 0 0 1-.27-.17c-.24-.11-.28-.09-.18 0 .26.14.25.07.45.17zm1.12-4.2l.09.07zm-17.57 3.93h-.05s.01-.02.05 0zm16.96-3.52l.41.25zm-2.72 13.67l.16.09zm-2.78 1.18l-.34-.14zm-9.17 2.63h.18l-.32-.12a.45.45 0 0 0 .14.12zm6.67-2.06l.15.06c.16 0 .22 0 .23-.1l-.54-.23z"/><path class="cls-1" d="M.62 127.2l1.19.23c.28.79-.94.67-.22 1.52l-.23-.11c-.29 0 2.23.87-1.16.71H.09s.23.11-.09.07l.74.07c.26.18.77.44.81.59a4.45 4.45 0 0 1-.55-.14l.1.37-.76-.14c.37.22 1.93.64 1 .63 1.1.23.61.31 1.17.44l-.51-.12a1.5 1.5 0 0 0 .84.76 34.62 34.62 0 0 1 3.64.33c-.35.09.11.08.49.16l-.27-.1a10.43 10.43 0 0 1 1.18.19l-.19-.06h.09a1.68 1.68 0 0 1-.27-.09c-.14 0-.26-.08-.21-.1h.07c-.08-.07 0-.12.1-.13l.57.17c-1.06-.42 1.8 0 1.87-.06.74.13-.1-.28.29-.28s.86.18 1.37.25-.66-.2-.68-.26l.83.13c0 .1.39.18.61.24.14-.09 1.23.09.12-.34.59 0 1 .19 1.12.14a5.84 5.84 0 0 1-.64-.15c.52.11-.11-.08-.22-.09-.45-.28 2.21.24 1-.23l.22.09c-.9-.37-1.79-.66-2.27-.92l.43.11-.37-.22a3.24 3.24 0 0 1 .66.22c-.38-.27.18-.24.35-.33l-2.54-.75c.61.1 1.85.34 1.07 0l.85.26c1.67.39-.61-.44-.1-.35l.94.25-.06.11a12.71 12.71 0 0 1 1.43.28h-.14c-.44-.2-.73-.39-.66-.45s-.45-.43.57-.22l-.9-.43.61.09.72.31c-.1.11.07.48 0 .66l.33.14c0-.1-.23-.35-.13-.38a6.19 6.19 0 0 1 1.41.52l-.69-.36c.07-.36 0-.39 1-.38l-.37-.13c-.18-.16-.36-.32.23-.08.21-.16.76-.17 1.73.1l-.83-.41c.06 0 1.37.49.2-.07l-.33-.26c.09 0-.38-.28.14-.13h.11-.07c.43 0-.76-.34-.2-.28.62.23-1-.54-.82-.53l1.24.48c.76.18-.44-.4-.35-.61a11.89 11.89 0 0 1 2.4 1 5.11 5.11 0 0 1-1.18-.74 8.42 8.42 0 0 1 .95.47c.58.15-.38-.25-.31-.32-.85-.42-2.19-1.09-2.24-1.14l-.28-.1c-.41-.3-.58-.49-.11-.38l.43.2-.17-.2.55.25-.1-.23h-.15c-.06-.07-.19-.27.12-.2l.31.15c1 .28-.14-.47-.13-.74l.6.33c.65.23-.94-.48-.59-.42l.76.37c-1-.57.26 0 .67.14l-1-.47h.26a8.45 8.45 0 0 1 1.8.83l-.71-.53.89.42c-1-.56.19 0-.31-.34a5 5 0 0 0 .67.32l-1.2-.8.5.37-1.27-.65c-.92-.59.2-.06-.12-.31l.36.24c-.26-.27.29 0 .6.07a3.27 3.27 0 0 1-.75-.38c-.06-.07.45.21.61.25-.85-.44-1.26-.75-.82-.62l.31.17c-.12-.09-.34-.21-.12-.14l.94.5-.87-.52c.28.09-.37-.32.26 0l.18.12.39-.21.76.39c-1-.57.48 0-.82-.63.74.3-.37-.5 1.07.29.22-.15-1.13-1-.28-.88 1.28.56 1 .11 1.23 0a12.77 12.77 0 0 1-.92-1.58c1.82.73-.32-.81.76-.5l-.64-.43c1.15.45-.05-.49 1.11-.11a2.19 2.19 0 0 1-.36-.31 4.61 4.61 0 0 1-.61-.3c.34.11 0-.21.87.27l.08.06c.85.49-.3-.39.47 0l-.93-.48h.21l.16.13c-1.77-1.61 1.25-.18-.35-1.67 1 .63-.47-.38.62.23 1.43.68-.18-.37-.49-.67l-.2-.12.22-.08c1.32.88-1.07-.77.05 0 1.25.18.53-1 1.27-1.16l-.36-.19c.14-.08-.2-.48.42-.24s-.77-.72-.81-.79c-.54-.46.71.16.62.17-.1-.21-1.28-1.05-.66-.88 1.18.64-.88-1.09.41-.31l-.1-.07c1 .36-.42-.76.53-.46l.18.12-3.67-2.81-4.38-2.5-3.71-1.77.13 1.51H9.26l-.74 2.35.9.71c-2-.58-.27 1.08-1.75.83l.85.48c0 .16-.55-.15-.71-.2-.47 1.27 0 3.1-1.62 3.59-.63-.2-.46.29-1.11.06.88.9.68 1.27.39 1.56l-.09-.06.09.25-.25-.12c.68.58-.23.49-.66.57l-.09-.06c-.85 1.29.21 3.34-1.66 4.17-1.76 0-.07 1.66-1.61 1.94-1-.19-.96 1.7-.58 2.01z"/><path class="cls-1" d="M1 130.11c-.39-.11-.25-.11 0 0zm11.72.7l-.02.01.56.18-.54-.19zm-.31 1.84c.14 0 .05-.07-.11-.11s-.01.05.11.11zM1.5 131.18c-.05 0 .2.1.47.14a.49.49 0 0 1 0-.11zm5.44 1.39l.31.11a.75.75 0 0 0-.31-.11zm150.06.76zm-.57 4.03l.47.18zm-1.43.25c.1.02.22.06 0 0zm.3-2.3l-.08-.05zm1.7-3.72l.1.07zm.24.23a1.48 1.48 0 0 1-.24-.21c-.22-.16-.25-.16-.16-.06s.22.13.4.27zm1-2.9l.08.09zm-16.41-.01h-.05s.01-.03.05 0zm15.87.14l.35.33c-.15-.13-.26-.24-.35-.33zm-.8 8.49l.17.07zm-2.36.65l-.36-.1zm-8.48 2.21h.18l-.33-.1zm6.18-1.76l.16.05c.16 0 .21 0 .2-.08l-.57-.16z"/><path class="cls-1" d="M138.54 136.52l1.19.15c.42.56-.79.48.06 1.09l-.25-.09c-.28 0 2.31.65-1 .48h-.11s.25.08-.07 0l.73.07a4.67 4.67 0 0 1 .88.41 3.9 3.9 0 0 1-.56-.11l.15.25-.76-.12c.39.16 2 .5 1.06.45 1.11.2.64.24 1.2.35l-.54-.08a2 2 0 0 0 .93.55s2.39.16 3.59.34c-.33.06.12.06.5.12l-.27-.07c.28 0 1 .15 1.18.15h-.2.1l-.28-.07c-.15 0-.26-.07-.22-.08h.07c-.09-.05 0-.08.09-.1l.58.14c-1.09-.32 1.77 0 1.82-.06.75.09-.14-.22.25-.23.22-.11.86.13 1.38.17s-.68-.14-.71-.19l.83.08c0 .08.41.13.63.17s1.22 0 .08-.28c.58 0 1 .12 1.11.08a5.27 5.27 0 0 1-.64-.1c.52.07-.12-.06-.24-.06-.48-.21 2.19.1.94-.23l.23.06c-.94-.25-1.86-.45-2.36-.64l.43.07-.39-.15a4.42 4.42 0 0 1 .67.15c-.41-.2.14-.2.3-.27l-2.59-.54c.61.05 1.86.2 1 0l.87.17c1.69.25-.68-.32-.16-.26l1 .16v.08c.5 0 .81.08 1.44.18h-.14c-.47-.13-.77-.27-.72-.32s-.52-.31.51-.18l-.94-.3.59.06.76.21c-.07.09.16.36.16.5l.35.1c0-.08-.29-.26-.2-.29a9 9 0 0 1 1.46.37l-.73-.26c0-.27 0-.29.88-.29l-.38-.09c-.21-.12-.41-.23.2-.06a3 3 0 0 1 1.67.1l-.88-.3c.06 0 1.41.37.18 0l-.37-.19c.08 0-.42-.21.1-.09h.1-.07c.42 0-.79-.26-.25-.19s-1.1-.41-.89-.39l1.28.37c.75.17-.5-.28-.46-.41a19.29 19.29 0 0 1 2.48.82 7.74 7.74 0 0 1-1.27-.55c.48.16.57.2 1 .37s-.41-.19-.37-.23c-.88-.33-2.29-.87-2.34-.91l-.28-.08c-.46-.23-.65-.37-.18-.26l.44.17-.2-.15.57.21-.14-.15-.16-.05c-.07 0-.23-.2.08-.12l.31.13c1 .28-.23-.32-.27-.5l.62.28c.65.23-1-.42-.63-.34l.78.33c-1-.48.24 0 .64.18l-1-.43h.24a18 18 0 0 1 1.82.77l-.78-.39.9.39c-1-.49.17.05-.36-.24.34.15.52.25.67.3l-1.22-.66.54.31-1.3-.6c-1-.51.18 0-.17-.22l.37.21c-.28-.21.27 0 .57.15a7 7 0 0 1-.77-.37c-.06-.05.46.21.61.26-.86-.41-1.29-.68-.86-.52l.31.16c-.13-.08-.35-.2-.13-.11l.94.47-.89-.47c.28.1-.39-.27.24 0l.19.11.31-.05.75.38c-1-.55.44.13-.85-.54.71.34-.44-.39 1 .4.16 0-1.18-.85-.42-.59 1.24.65.91.32 1.08.31a9.33 9.33 0 0 1-1.06-1.23c1.69 1-.4-.62.6-.12l-.62-.47c1.06.63-.08-.35 1 .25l-.35-.32s-.16-.1-.55-.39c.3.18 0-.14.78.44l.07.07c.79.59-.3-.36.41.11l-.86-.61.19.05.15.14c-1.66-1.67 1.06.25-.42-1.3.86.75-.43-.43.55.35 1.27.93-.18-.32-.45-.64l-.18-.15h.19c1.18 1.06-1-.9 0 0 1.1.52.43-.56 1.1-.49l-.32-.25c.13 0-.17-.44.37-.06s-.67-.8-.7-.87c-.47-.53.62.35.54.33-.09-.19-1.1-1.23-.56-.9 1 .88-.74-1.14.38-.12l-.1-.08c.89.61-.33-.74.49-.2l.15.15-3.09-3.41-3.74-3.4-3.22-2.55v1.33c-.57-.17-1.15-.31-1.73-.46-.32.62-.63 1.28-.94 1.94l.79.83c-1.82-.92-.36.94-1.77.44l.78.59c0 .14-.51-.23-.67-.31-.58 1.17-.18 2.91-1.82 3.33-.62-.22-.47.27-1.11 0 .87.93.68 1.27.39 1.57l-.09-.06.09.24-.25-.11c.7.55-.21.47-.63.57l-.1-.06a4.1 4.1 0 0 0-.25 2.17 1.62 1.62 0 0 1-.91 1.76c-1.72.13.23 1.38-1.24 1.66-1.12-.13-.74 1.31-.31 1.52z"/><path class="cls-1" d="M139.4 138.54c-.4-.1-.25-.05 0 0zm11.52.4l-.01.01.57.12-.56-.13zm-.02 1.47c.14 0 0-.06-.12-.09s0 .05.12.09zm-10.9-1.14s.2.07.47.12l-.06-.08zm5.53 1.13l.32.09a1 1 0 0 0-.32-.09zm-31.67 24.94zm-.13 6.37l.48.12zm-1.41.79h-.06c.12.02.24.04.06 0zm.14-3.5h-.09zm.95-5.54h.12zm.31.13a1 1 0 0 1-.3-.12c-.25-.08-.28-.07-.17 0a3.48 3.48 0 0 0 .47.12zm-.09-2.47l.09.08zm-15.71 4.53h-.06s.02-.02.06 0zm15.34-4.55l.41.26zm.96 10.73h.18zm-2.4 1.58l-.36-.06zm-8.51 3.67h.18l-.33-.09zm6.19-2.7h.17c.16 0 .21 0 .2-.13l-.58-.12z"/><path class="cls-1" d="M95.66 173.34l1.2.08c.44.57-.77.58.1 1.15l-.25-.07c-.28 0 2.33.55-1 .55h-.12s.25.07-.07.05h.74a4.39 4.39 0 0 1 .89.39 3.14 3.14 0 0 1-.56-.08l.15.24-.76-.1c.39.15 2 .44 1.07.43 1.11.16.64.21 1.21.31l-.54-.07a1.87 1.87 0 0 0 .94.54s2.39.1 3.6.23c-.33.09.12.07.5.11l-.27-.06a10.2 10.2 0 0 1 1.19.1h-.2.09l-.27-.06c-.15 0-.27-.06-.22-.08h.07c-.09-.06 0-.1.08-.12l.59.12c-1.1-.29 1.78-.12 1.83-.21.76.05-.14-.24.25-.29.23-.14.87.08 1.39.08s-.68-.11-.71-.16h.84c0 .1.41.12.64.15s1.22-.09.07-.34c.59-.06 1 0 1.12 0h-.65c.53 0-.12-.06-.24-.05-.49-.19 2.22-.11.94-.37h.24c-1-.2-1.88-.34-2.39-.51h.43l-.4-.15a4.94 4.94 0 0 1 .69.11c-.42-.2.13-.25.29-.36l-2.63-.35c.62 0 1.88 0 1-.16l.88.1c1.71.09-.69-.29-.17-.29l1 .07v.11h1.46-.15c-.47-.1-.78-.22-.74-.29s-.52-.31.52-.3l-1-.23h.61l.77.15c-.07.12.17.42.18.6l.35.07c0-.1-.3-.28-.21-.33a6.41 6.41 0 0 1 1.49.23l-.74-.21c0-.35-.06-.36.88-.53l-.39-.05c-.22-.11-.43-.23.21-.12.16-.19.69-.3 1.7-.24l-.91-.21c.06 0 1.45.18.18-.1l-.38-.17c.08 0-.43-.18.1-.14.43 0-.82-.16-.26-.21s-1.14-.29-.92-.32l1.31.19c.78 0-.52-.27-.49-.47a12.37 12.37 0 0 1 2.58.46 5.7 5.7 0 0 1-1.32-.43 8.33 8.33 0 0 1 1 .23c.6 0-.43-.15-.38-.22-.92-.21-2.39-.55-2.44-.58h-.3c-.47-.18-.68-.32-.2-.31l.46.1-.21-.15.59.12-.15-.18h-.17c-.07 0-.25-.2.08-.2l.32.08c1.07.05-.25-.39-.31-.62l.67.18c.68.08-1-.25-.68-.26l.83.18c-1.07-.31.25 0 .67 0l-1.09-.23h.25a10.71 10.71 0 0 1 1.94.39l-.83-.26 1 .21c-1.1-.31.19 0-.39-.24a4.59 4.59 0 0 0 .72.15l-1.31-.45.58.22-1.39-.33c-1-.33.18-.09-.2-.24l.41.14c-.32-.19.28 0 .6 0a4.25 4.25 0 0 1-.83-.19c-.07-.05.5.1.66.1-.93-.22-1.4-.42-1-.38l.34.08c-.14 0-.38-.11-.15-.09l1 .26-1-.29c.29 0-.44-.21.25 0l.2.08.32-.24.83.2c-1.13-.31.47-.05-.95-.39.79.14-.49-.35 1.1.08.16-.16-1.34-.65-.51-.69 1.37.27 1-.05 1.17-.16a12.58 12.58 0 0 1-1.29-1.15c1.91.36-.52-.6.59-.48l-.73-.27c1.21.24-.17-.38 1-.19a2.47 2.47 0 0 1-.42-.21l-.65-.18c.34.05 0-.18.89.13h.09c.93.31-.39-.27.43-.06l-1-.3h.2l.18.08c-2.08-1.12 1.12-.19-.76-1.25 1.05.44-.54-.27.63.16 1.5.48-.26-.26-.62-.48l-.22-.08.19-.07c1.44.65-1.19-.56 0 0 .61.06.67-.1.66-.31s-.09-.4.22-.42l-.37-.17c.11 0-.29-.35.31-.11s-.86-.58-.9-.64c-.59-.38.66.24.58.23s-1.36-.91-.78-.68c1.16.68-1-.91.28-.11l-.1-.07c.92.54-.52-.54.3 0l.17.13a39.78 39.78 0 0 1-3.42-3.08q-2-1.6-4-3.13a40.94 40.94 0 0 0-3.64-2c-.09.37-.18.75-.25 1.12l-.06 1c-.67.1-1.42.31-2 .42l-.39 1.48-.25 1.35 1 .58c-2.06-.21-.08 1.14-1.6 1.17l.93.32c0 .15-.57 0-.74-.06a12 12 0 0 0 .08 2.07 1.52 1.52 0 0 1-.85 1.61c-.65-.06-.36.35-1 .26 1.08.65 1 1 .77 1.32h-.1l.15.21-.27-.06c.81.38-.09.46-.49.61h-.1c-.48 1.28 1.08 2.82-.51 3.79-1.69.27.35 1.37-1.08 1.76-.87-.36-.4 1.09.03 1.27z"/><path class="cls-1" d="M96.6 175.42c-.41-.09-.26-.05 0 0zm11.58-.5l-.01.01.57.07-.56-.08zm.01 1.78c.14-.06 0-.08-.12-.1s-.01.05.12.1zm-10.94-.57s.21.07.48.1a.35.35 0 0 1-.06-.08zm5.52.98l.33.08a1.23 1.23 0 0 0-.33-.08zM115 118zm-2.34 8.22l.45.21zm-1.66.91c0 .03.12.08 0 0zm1.28-4.68l-.07-.06zm3.05-6.92h.1zm.27.22a.73.73 0 0 1-.25-.2c-.24-.13-.27-.12-.19 0 .25.15.24.08.44.2zm1.6-3.62l.08.1zm-18.58 4.35h-.05s.01-.02.05 0zm17.95-4.18l.33.35zm-3.46 14.14l.17.08zm-2.97 1.88l-.35-.14zm-9.92 3.6l.17.08-.3-.17zm7.24-2.58l.15.07c.16 0 .23 0 .25-.15l-.54-.23z"/><path class="cls-1" d="M93.94 125.89l1.17.29c.26.8-1 .57-.28 1.42l-.23-.13c-.27-.06 2.13 1.11-1.17.48h-.1s.22.13-.09 0l.72.19c.23.2.72.51.74.64a4.72 4.72 0 0 1-.52-.21l.06.32-.73-.27c.34.26 1.82.94.91.74 1 .42.56.39 1.08.62l-.51-.18a1.72 1.72 0 0 0 .72.86s2.35.59 3.5 1c-.36.05.1.11.46.24l-.25-.14a10.61 10.61 0 0 1 1.15.35l-.18-.08.08.05a1.38 1.38 0 0 1-.25-.13c-.14-.06-.25-.12-.19-.13h.06c-.07-.1.07-.13.13-.14l.54.25c-1-.56 1.84.18 1.92.06.74.2 0-.34.36-.33.29-.16.85.24 1.37.33s-.65-.25-.66-.33l.84.16c0 .13.37.22.59.3.16-.12 1.27.07.21-.45.61 0 1 .2 1.14.13a3.2 3.2 0 0 1-.64-.17c.52.13-.1-.09-.22-.1-.42-.33 2.27.19 1.09-.36l.22.1c-.88-.42-1.77-.74-2.22-1l.42.11-.34-.25a2.42 2.42 0 0 1 .65.24c-.35-.33.23-.32.42-.45l-2.51-.84c.63.09 1.88.3 1.11-.05l.86.25c1.68.36-.6-.49-.08-.41l1 .22-.08.14a10.33 10.33 0 0 1 1.46.23.43.43 0 0 1-.14 0c-.44-.2-.72-.4-.64-.5s-.43-.48.62-.33l-.89-.44.62.05.73.3c-.12.15 0 .6 0 .84l.33.14c.06-.13-.2-.42-.09-.48a4.94 4.94 0 0 1 1.42.5l-.68-.37c.11-.48.07-.49 1.08-.62l-.38-.11c-.18-.18-.35-.35.25-.14.24-.22.81-.32 1.81-.12l-.84-.39c.07 0 1.4.4.21-.11l-.33-.28c.1 0-.37-.3.16-.19h.11-.08c.46 0-.76-.31-.19-.31.64.19-1.06-.52-.82-.54l1.27.41c.78.11-.44-.43-.34-.68a9.11 9.11 0 0 1 2.46.89 4.1 4.1 0 0 1-1.2-.72 5.44 5.44 0 0 1 1 .43c.6.1-.39-.25-.32-.34-.86-.39-2.23-1-2.27-1l-.29-.08c-.42-.3-.59-.5-.11-.44l.44.19-.17-.22.57.22-.1-.25h-.16c-.06-.07-.19-.3.13-.25l.31.13c1.07.19-.12-.54-.11-.85l.62.31c.66.18-1-.44-.61-.41l.78.33c-1-.54.27 0 .68.08l-1-.42h.27a7.3 7.3 0 0 1 1.84.73l-.76-.44.91.38c-1-.53.19 0-.32-.35a5.17 5.17 0 0 0 .69.28l-1.18-.75.51.36-1.31-.59c-.94-.56.22-.1-.11-.34l.36.23c-.25-.28.3 0 .63 0a2.69 2.69 0 0 1-.78-.34c0-.07.47.18.63.21-.86-.4-1.28-.71-.83-.61l.32.15c-.13-.08-.35-.19-.13-.14l1 .46-.89-.49c.29.07-.37-.32.27 0l.18.12.41-.27.77.35c-1-.52.49 0-.83-.61.75.27-.38-.51 1.09.23.22-.18-1.14-1-.28-.94 1.3.5 1 0 1.25-.07a10.89 10.89 0 0 1-.91-1.63c1.82.71-.31-.83.78-.53l-.64-.44c1.15.46 0-.52 1.12-.11a1.9 1.9 0 0 1-.57-.54 4.5 4.5 0 0 1-.6-.31c.34.12 0-.22.87.29l.08.07c.83.51-.29-.4.47 0l-.92-.51h.22l.15.14c-.85-.84-.53-.89-.2-.9s.68 0-.07-.77c.91.69-.44-.42.6.28 1.36.79-.16-.38-.44-.71l-.18-.13.22-.07c1.23 1-1-.87 0 0 1.22.32.62-.82 1.35-.9l-.32-.24c.13-.05-.13-.48.42-.12s-.63-.84-.65-.91c-.44-.56.65.32.56.3-.07-.21-1-1.29-.48-1 1 .89-.62-1.25.45-.17l-.09-.09c.88.64-.22-.81.59-.25l.13.17q-1.36-1.86-2.63-3.81c-1.11-1.26-2.24-2.5-3.38-3.74-1-.9-2.11-1.77-3.21-2.62a19.38 19.38 0 0 0-.8 2c-.72 0-1.47 0-2.22.06-.37.53-.64 1.07-1 1.6a16.45 16.45 0 0 0-.84 1.6l.8.85c-1-.29-1.17.08-1.27.48s-.09.84-.88.77l.83.52c0 .2-.57-.13-.74-.18-.79 1.71-.41 3.86-2.2 4.68-.65-.15-.49.41-1.15.23.87 1 .65 1.41.33 1.8l-.09-.06.08.28-.25-.11c.69.59-.25.6-.7.74l-.09-.06c-.9 1.6.2 3.77-1.7 4.79-1.77.1-.07 1.78-1.62 2-.88-.21-.85 1.59-.49 1.9z"/><path class="cls-1" d="M94.18 128.56c-.38-.19-.24-.11 0 0zm11.75 1.32l-.01.01.55.19-.54-.2zm-.67 2.4c.16-.05.07-.1-.08-.15s-.03.07.08.15zm-10.7-2.71s.17.12.43.22v-.11zm5.11 2.3l.29.16a.79.79 0 0 0-.29-.16zM64 119.33zm-2.33 6.23l.43.25zm-1.55.32c.06.04.16.12 0 0zm1.16-3.31l-.07-.07a.45.45 0 0 1 .07.07zm3.09-5.4l.1.07zm.24.24a1 1 0 0 1-.23-.22c-.22-.15-.25-.15-.18 0a4.62 4.62 0 0 0 .41.22zm1.39-3.18l.07.09zm-17.47.6l-.05-.06s.02.03.05.06zm16.94-.52l.32.35zm-3.37 11.51l.17.09zm-2.66.76l-.34-.15zM50.63 129h.19l-.34-.07a.64.64 0 0 0 .15.07zm6.37-2.09l.15.06c.16 0 .21 0 .22-.07l-.55-.23z"/><path class="cls-1" d="M43.42 124l1.2.15c.31.87-1 .82-.19 1.76l-.24-.1c-.15 0 .42.2.6.41s0 .42-1.74.66h-.12s.24.09-.08.11h.75c.27.17.81.37.86.54a3.07 3.07 0 0 1-.57-.05l.13.46h-.77c.39.2 2 .36 1.06.58 1.14 0 .65.24 1.23.27h-.55a1.35 1.35 0 0 0 .94.72s.62-.13 1.38-.24a14.78 14.78 0 0 1 2.28-.18c-.33.16.13.07.51.08h-.28a8 8 0 0 1 1.2 0h-.2.09l-.28-.05c-.15 0-.26 0-.22-.07h.07c-.09-.06 0-.12.08-.15l.59.1c-1.11-.29 1.78-.19 1.84-.24.75.08-.13-.23.26-.26.23-.13.86.12 1.38.17s-.68-.16-.71-.21l.83.09c0 .09.41.14.63.19s1.21.08.08-.28c.59 0 1 .16 1.12.12a5.59 5.59 0 0 1-.64-.13c.52.1-.12-.06-.24-.07-.46-.25 2.19.24 1-.18l.23.08c-.92-.33-1.82-.59-2.31-.82l.42.1-.37-.2a3.9 3.9 0 0 1 .66.2c-.4-.24.16-.21.33-.28l-2.53-.77c.62.09 1.85.33 1.06 0l.86.25c1.66.4-.63-.41-.12-.31l.94.25-.06.09c.5.08.81.16 1.42.31h-.14c-.45-.2-.73-.37-.68-.43s-.45-.41.56-.17l-.89-.43.6.11.72.32c-.09.09.07.43.06.59l.33.14c0-.08-.25-.32-.15-.35a8 8 0 0 1 1.41.55l-.69-.36c.05-.31 0-.34 1-.26l-.37-.14c-.19-.15-.37-.31.22 0 .19-.12.73-.09 1.69.23l-.83-.43c.07 0 1.35.55.2 0l-.33-.26c.09 0-.37-.29.14-.11h.1-.07c.43.07-.74-.37-.2-.26s-1-.58-.8-.56l1.21.55c.74.23-.44-.4-.35-.58a14.07 14.07 0 0 1 2.35 1.16 5.75 5.75 0 0 1-1.15-.77 8.63 8.63 0 0 1 .92.51c.57.2-.37-.26-.31-.31-.82-.47-2.13-1.2-2.17-1.26l-.27-.11c-.41-.31-.57-.51-.11-.36l.42.23-.17-.21.54.29-.1-.21-.15-.07c0-.07-.18-.27.13-.17l.29.17c1 .36-.13-.44-.11-.69l.58.38c.63.28-.91-.56-.57-.46l.74.43c-.93-.63.25 0 .64.2l-1-.54h.25a10.49 10.49 0 0 1 1.73 1l-.71-.5.84.48c-1-.62.19 0-.29-.34a4.81 4.81 0 0 0 .64.37l-1.1-.84.47.39L61 123c-.88-.65.2 0-.1-.3l.34.26c-.24-.28.28 0 .58.15a4.54 4.54 0 0 1-.72-.44c-.05-.07.44.24.59.3-.81-.51-1.2-.84-.78-.67l.3.19c-.12-.09-.32-.23-.11-.14l.89.58-.82-.59c.26.12-.35-.34.25 0l.17.14.38-.13.72.45c-1-.66.46.09-.77-.68.7.38-.34-.51 1 .42.21-.1-1-1.07-.24-.84 1.21.7 1 .26 1.18.21a10.22 10.22 0 0 1-.8-1.58c1.69 1-.26-.78.75-.3l-.59-.51c1.07.62 0-.45 1.07.12a2.12 2.12 0 0 1-.33-.36 3.56 3.56 0 0 1-.55-.38c.31.16 0-.19.8.41l.08.08c.77.6-.26-.41.44.06l-.85-.62h.21l.14.14c-1.55-1.79 1.18.11-.21-1.55.85.77-.41-.45.56.34 1.28.93-.13-.36-.4-.7L64 117h.21c1.15 1.09-.92-.94.05 0 1.15.45.58-.7 1.28-.66l-.31-.27c.13 0-.13-.47.4-.08s-.62-.84-.64-.91c-.44-.56.61.36.53.34-.07-.2-1-1.3-.49-1 1 .93-.64-1.23.41-.13l-.09-.09c.84.68-.27-.76.5-.16l.14.17q-1.39-1.85-2.68-3.76L60 106.71c-1-.93-2-1.84-3.1-2.73a13.24 13.24 0 0 0-.53 1.71c-.64-.1-1.32-.19-2-.27-.5.81-1 1.62-1.4 2.41l.75.87c-1.88-.87-.49 1.08-1.94.63l.77.61c0 .15-.52-.22-.68-.3-.72 1.28-.45 3.18-2.18 3.53-.61-.26-.49.27-1.11 0 .78 1 .54 1.36.21 1.64l-.08-.07.06.26a1 1 0 0 1-.24-.14c.63.64-.28.49-.72.54l-.08-.07a5 5 0 0 0-.64 2.31 2.3 2.3 0 0 1-1.35 2c-.89 0-.93.46-.94.94s0 1-.78 1.16c-1.02-.27-1.02 1.86-.6 2.26z"/><path class="cls-1" d="M43.89 127.35c-.41-.08-.26-.04 0 0zm11.75-.21l-.02.01.56.17-.54-.18zm-.14 1.56c.14 0 0 0-.12-.09s0 .04.12.09zm-10.99-.07c0 .07.2.07.48.06l-.06-.13c-.1.03-.32.04-.42.07zm5.59.44l.33.06a.78.78 0 0 0-.33-.06zm64.79-113.52zm-2.7 7.38l.43.25zm-1.7.59c.06.03.16.09 0 0zm1.51-4.08l-.07-.07zm3.31-6.25l.1.07zm.25.22a.65.65 0 0 1-.24-.21c-.23-.14-.26-.13-.18 0 .24.16.23.08.42.21zm1.6-3.58l.08.1zM99 12.18h-.06zM116.54 10l.33.34zm-3.92 13.18l.16.1zm-2.97 1.29l-.33-.16zm-9.75 2.21l.17.08-.3-.18a.53.53 0 0 0 .13.1zm7.1-1.63l.15.08c.15.05.22 0 .25-.1l-.52-.28z"/><path class="cls-1" d="M93.84 20.49l1.15.37c.22.78-1 .48-.34 1.36l-.22-.14c-.28-.06 2.08 1.2-1.19.41h-.1s.21.14-.09 0l.71.22c.22.21.7.53.72.67a5.57 5.57 0 0 1-.52-.24l.05.33-.72-.29c.34.27 1.79 1 .89.76 1 .45.54.41 1.06.66l-.5-.21a1.72 1.72 0 0 0 .7.87s2.33.66 3.47 1.09c-.36 0 .09.11.45.25l-.24-.14a11.86 11.86 0 0 1 1.12.4l-.17-.09h.08a1.38 1.38 0 0 1-.25-.13c-.14-.07-.24-.13-.19-.14h.06c-.07-.09.07-.11.13-.12l.53.28c-1-.6 1.79.29 1.88.2.72.24 0-.31.35-.27.28-.12.83.29 1.33.43s-.63-.29-.63-.36l.81.22c0 .12.36.24.57.33.16-.09 1.24.19.21-.39.59.08 1 .3 1.11.25-.21-.08-.41-.12-.62-.22.5.16-.1-.1-.22-.12-.4-.34 2.21.41 1.07-.2l.21.11c-.85-.47-1.71-.85-2.15-1.17l.41.14-.33-.26a3.09 3.09 0 0 1 .63.28c-.33-.32.23-.26.42-.35l-2.43-1c.61.15 1.83.49 1.08.08l.83.32c1.64.52-.56-.51-.06-.38l.93.31-.08.12a12.27 12.27 0 0 1 1.42.38l-.14-.05c-.42-.23-.68-.45-.61-.52s-.4-.49.62-.23l-.86-.5.61.12.7.36c-.12.12 0 .54-.06.75l.32.17c.06-.12-.19-.41-.08-.44a5.24 5.24 0 0 1 1.37.62l-.65-.42c.12-.41.08-.43 1.07-.41l-.36-.15c-.17-.18-.33-.36.25-.09.23-.18.8-.19 1.76.12l-.81-.46c.07 0 1.35.55.21-.07l-.3-.29c.09 0-.36-.32.16-.15h.1-.07c.44.05-.73-.38-.17-.3.61.25-1-.61-.78-.6l1.22.54c.75.21-.41-.44-.3-.66a10.09 10.09 0 0 1 2.35 1.14 5 5 0 0 1-1.13-.82 7.33 7.33 0 0 1 .93.52c.57.17-.37-.28-.3-.35-.82-.46-2.13-1.2-2.17-1.25l-.28-.11c-.39-.33-.55-.54-.07-.42l.41.23-.15-.22.54.28-.08-.24-.16-.06c0-.08-.17-.3.15-.21l.29.16c1 .31-.1-.51-.07-.79l.59.36c.64.26-.92-.53-.57-.45l.74.4c-.92-.62.27 0 .67.16l-1-.51h.26a8.54 8.54 0 0 1 1.77.91l-.73-.5.87.46c-1-.61.19 0-.29-.36a5.93 5.93 0 0 0 .65.35l-1.11-.84.48.4-1.26-.69c-.89-.64.21-.07-.1-.33l.35.26c-.24-.29.29 0 .61.09a2.57 2.57 0 0 1-.74-.42c0-.07.44.23.6.28-.83-.48-1.22-.82-.78-.67l.3.18c-.12-.09-.33-.22-.11-.14l.91.54-.84-.56c.28.1-.35-.35.26 0l.17.13.41-.2.74.42c-1-.62.48.05-.78-.67.72.34-.35-.53 1 .34.23-.14-1.06-1.07-.23-.91 1.25.64 1 .17 1.23.09a14.54 14.54 0 0 1-.81-1.64c1.76.86-.26-.83.79-.43l-.61-.48c1.11.55 0-.49 1.11 0l-.34-.34s-.16-.09-.57-.36c.32.14 0-.2.84.36l.07.07c.8.56-.27-.41.47 0l-.88-.57h.23l.15.14c-1.61-1.77 1.22 0-.21-1.64.88.74-.42-.43.58.31 1.33.86-.14-.37-.41-.71L115 13h.22c1.19 1-1-.91 0 0 1.19.37.61-.79 1.35-.84l-.32-.25c.13 0-.13-.48.42-.12s-.63-.83-.65-.91c-.45-.55.64.32.56.31-.07-.21-1-1.28-.49-1 1 .89-.65-1.22.44-.17l-.09-.09c.89.62-.25-.8.57-.26l.14.16q-1.44-1.8-2.8-3.67l-3.55-3.59c-1.05-.87-2.12-1.73-3.22-2.57-.18.6-.39 1.19-.52 1.78-.67-.05-1.35-.1-2-.13-.54.91-1.07 1.81-1.51 2.71l.78.85c-1.94-.73-.54 1.22-2 .88l.79.58c0 .17-.54-.19-.7-.25-.75 1.44-.45 3.44-2.21 3.95-.63-.22-.5.31-1.14.05.81 1 .57 1.38.25 1.69l-.16-.11.06.27-.22-.09c.64.63-.28.51-.72.59l-.09-.07c-1 1.35 0 3.5-2 4.24-1.75-.1-.17 1.66-1.72 1.76-.9-.3-.97 1.46-.63 1.79z"/><path class="cls-1" d="M94 23.13c-.41-.2-.27-.13 0 0zm11.5 2.23h-.02l.54.23-.52-.23zm-.68 2.07c.16 0 .08-.08-.08-.14s-.02.06.08.14zm-10.51-3.28s.17.13.43.23v-.1zm5.05 2.44l.29.17a1 1 0 0 0-.29-.17zM55.43 44l.48.12zm-1.54 1.1c.11.02.17.05 0 0zm.24-4.56h-.09zM54 33.83zm.31.04a.78.78 0 0 1-.31 0c-.27 0-.29 0-.17.07a4.59 4.59 0 0 0 .48-.07zm-.91-3.35h.12zm-14.08 8.25h-.07s.03-.01.07 0zM53 31l.48.05zm2.91 13.08l.18.05zm-2.7 2.24l-.36-.1zm-9.47 2.03l.16.11-.27-.21zm6.88-1l.15.07c.16 0 .23 0 .25-.14l-.55-.22z"/><path class="cls-1" d="M37.55 42.79l1.09.48c.39.5-.73 0 0 .63l-.22-.14c-.12-.06.39.26.55.42s0 .2-1.45-.6l-.1-.07s.21.15-.06 0l.63.37a7.42 7.42 0 0 1 .72.61c-.11-.06-.31-.2-.47-.31l.1.2-.63-.38c.32.26 1.63 1.21.85.75.92.65.51.45 1 .78l-.45-.3a3.51 3.51 0 0 0 .69.8l1.13.71 1.93 1.15c-.32-.08.09.11.41.31L43 48c.27.1.84.52 1 .6l-.16-.12.07.06-.23-.17c-.12-.08-.21-.16-.17-.15h.06c-.06-.09.07-.08.12-.07l.49.34c-.9-.69 1.68.62 1.79.53.68.32 0-.29.34-.2.26-.07.78.37 1.28.55S47 49.06 47 49l.79.29c0 .12.34.26.55.36.16-.07 1.23.25.22-.37.6.11 1 .33 1.11.28a4.38 4.38 0 0 1-.62-.24c.5.18-.09-.09-.21-.12-.39-.33 2.22.43 1.07-.2l.22.11c-.86-.46-1.71-.85-2.16-1.16l.41.14-.33-.25a3.06 3.06 0 0 1 .63.28c-.35-.32.21-.25.4-.35l-2.46-1c.6.16 1.83.45 1.07.08l.84.29c1.68.43-.6-.46-.09-.36l.94.25-.06.12c.5.06.81.13 1.44.26h-.14c-.44-.2-.72-.39-.66-.47s-.45-.43.59-.28l-.9-.4h.61l.74.26c-.11.14.06.55 0 .77l.33.14c0-.13-.22-.39-.12-.45a5.51 5.51 0 0 1 1.44.46l-.65-.36c.08-.46 0-.46 1-.63l-.39-.08c-.19-.17-.38-.32.23-.15.21-.23.77-.37 1.78-.28l-.87-.3c.06 0 1.44.25.2-.13l-.36-.23c.09-.07-.41-.25.12-.2h.12-.08c.44-.07-.8-.2-.24-.27.66.1-1.12-.36-.89-.4l1.31.22c.78 0-.5-.34-.45-.6a9.93 9.93 0 0 1 2.58.48 4.4 4.4 0 0 1-1.3-.51 6.21 6.21 0 0 1 1 .25c.6 0-.43-.18-.37-.28-.92-.23-2.38-.57-2.44-.61h-.29c-.48-.2-.69-.35-.2-.37l.46.1-.21-.17.6.11-.16-.22H53c-.07-.06-.25-.23.07-.25l.33.06c1.08 0-.24-.46-.31-.73l.68.14c.69 0-1-.19-.69-.24l.84.13c-1.09-.26.25-.08.67-.08l-1.1-.14.25-.08a8.47 8.47 0 0 1 2 .24l-.85-.22 1 .12c-1.12-.23.19 0-.4-.24a4.66 4.66 0 0 0 .73.08l-1.34-.38.59.2-1.47-.26c-1.06-.26.18-.13-.21-.27l.42.11c-.33-.18.27-.11.6-.14a3 3 0 0 1-.84-.11h.66c-.94-.14-1.43-.3-1-.33l.35.06c-.15 0-.39-.09-.16-.1l1 .15-1-.2c.29 0-.47-.17.24-.08h.21l.29-.34.85.09c-1.16-.17.46-.16-1-.3.8 0-.53-.34 1.1-.13.15-.24-1.4-.52-.58-.74 1.39 0 1-.3 1.13-.48-.55-.41-1-.69-1.47-1.07 2-.08-.64-.57.47-.73l-.76-.11c1.23-.07-.25-.4 1-.53a1.92 1.92 0 0 1-.46-.12 3.49 3.49 0 0 1-.68 0c.35 0-.07-.18.9-.11h.1c1 .06-.44-.2.41-.22h-1l.18-.1h.2c-2.3-.61 1-.64-1.07-1.18 1.14.12-.59-.12.66 0 1.58 0-.33-.22-.74-.33h-.23l.16-.15c1.57.18-1.31-.19 0 0 1.2-.34 0-.89.61-1.31H54c.08-.1-.39-.27.26-.3s-1-.26-1.08-.3c-.69-.15.71-.11.63-.08s-1.61-.33-1-.41c1.34.08-1.27-.49.23-.34h-.12c1.07 0-.71-.4.27-.46h.21c-1.5-.3-3-.62-4.51-.95l-5-.53c-1.37 0-2.75-.06-4.12-.07.25.43.49.88.76 1.27l-1.68.78c.12.73.26 1.47.4 2.12l1.13.2c-2 .29.25.9-1.19 1.21l1 .06c0 .12-.55.07-.73.09.17 1 1.4 2.12.1 2.84-.66 0-.3.28-1 .27 1.17.37 1.13.65 1 .88h-.11l.17.14h-.27c.84.23 0 .32-.41.42h-.1c-.29.79 1.33 2-.19 2.29-.82-.08-.71.11-.58.33s.26.43-.41.33c-.94-.36-.49.33-.11.61z"/><path class="cls-1" d="M49.14 47.75l-.02.01.55.21-.53-.22zm-.69 2.03c.16 0 .08-.07-.07-.14s-.03.06.07.14zm-9.75-4.9a2.52 2.52 0 0 0 .39.3v-.08zm4.55 3.27l.26.21a1.23 1.23 0 0 0-.26-.21zm2.23 29.96zm.52 7l.48.14zm-1.5.8c.06.02.17.09 0 0zm.23-3.74h-.09zm-.29-5.87zm.34.01a1 1 0 0 1-.32 0c-.27 0-.29 0-.16.08a3.88 3.88 0 0 0 .48-.08zm-1.34-3.05zM30 79.9h-.07s.07-.01.07 0zm13.17-6.14h.48zm3.31 11.49l.18.06zm-2.61 1.57l-.35-.11zM35 87.6l.16.1-.29-.19zm6.42-.22l.15.07c.16 0 .21 0 .23-.08l-.55-.23z"/><path class="cls-1" d="M28.47 82.54l1.09.48c.41.43-.71-.06.06.55l-.22-.13c-.24-.13 2.06 1.24-.9-.17l-.1-.06s.22.14-.06 0l.65.34a9 9 0 0 1 .76.56l-.49-.28.12.19-.67-.39c.34.25 1.72 1.1.91.69a10.45 10.45 0 0 1 1 .7l-.46-.27a3.32 3.32 0 0 0 .76.71l3.16 1.68c-.31-.08.11.1.44.28l-.24-.15c.27.09.87.47 1.06.54l-.17-.1h.08L35 87.6c-.13-.08-.23-.14-.19-.14l.06.05c-.07-.08.05-.06.11-.05l.5.31c-.94-.63 1.66.6 1.74.55.68.31-.08-.24.29-.14s.79.36 1.27.54-.61-.32-.63-.37l.78.29c0 .1.36.24.57.33s1.18.32.16-.27c.57.14 1 .35 1.07.32-.2-.08-.39-.13-.61-.24.5.19-.1-.08-.21-.12-.42-.3 2.14.55 1 0l.21.1c-.86-.44-1.72-.83-2.17-1.12l.4.15-.35-.28a5.13 5.13 0 0 1 .64.28c-.37-.28.18-.18.35-.23l-2.45-1c.59.18 1.79.53 1 .17l.83.31c1.64.5-.62-.43-.12-.29l.93.29-.06.08c.49.1.8.19 1.41.35h-.14c-.44-.2-.73-.38-.67-.43s-.46-.39.55-.17l-.9-.4.59.1.74.28c-.09.1.09.44.07.61l.33.14c0-.1-.25-.33-.15-.36a6.43 6.43 0 0 1 1.42.5l-.69-.34c0-.36 0-.36 1-.4l-.39-.11c-.19-.14-.38-.29.23-.09.19-.17.74-.22 1.73-.06l-.87-.32c.07 0 1.42.33.19-.08l-.36-.34c.09 0-.4-.24.12-.15h.11-.08c.43 0-.79-.24-.24-.25.65.14-1.11-.38-.89-.4l1.3.3c.78.06-.5-.33-.45-.53a12 12 0 0 1 2.55.6 5.86 5.86 0 0 1-1.29-.52 8.28 8.28 0 0 1 1 .29c.6 0-.42-.18-.37-.26-.91-.26-2.36-.65-2.41-.69h-.29c-.47-.21-.68-.35-.2-.33l.46.12-.18-.18.59.13-.15-.13h-.16c-.07-.06-.25-.21.07-.2l.33.07c1.07.05-.24-.4-.31-.62l.67.17c.68.06-1-.23-.68-.25l.83.16c-1.08-.29.25 0 .67 0l-1.09-.19h.24a9.55 9.55 0 0 1 2 .32l-.85-.24 1 .17c-1.11-.27.19 0-.39-.24a6.52 6.52 0 0 0 .73.12l-1.33-.41.48.14-1.4-.26c-1.05-.29.17-.11-.21-.25l.41.12c-.32-.17.28-.07.61-.09a3.29 3.29 0 0 1-.84-.13c-.07 0 .5.06.66.06-.94-.17-1.42-.32-1-.33l.35.07c-.15 0-.39-.09-.16-.09l1 .18-1-.21c.29 0-.46-.18.24-.07H45l.3-.28.84.11c-1.15-.19.46-.12-1-.3.79 0-.53-.31 1.09-.07.16-.2-1.39-.5-.58-.66 1.4.06 1-.25 1.14-.4-.55-.38-1.06-.63-1.48-1 2-.07-.65-.51.46-.65L45 78.7c1.24-.09-.26-.34.94-.49a2.58 2.58 0 0 1-.47-.1 4.11 4.11 0 0 1-.67 0c.35 0-.08-.16.9-.13h.1c1 0-.46-.17.39-.22h-1.05l.18-.1h.2c-2.31-.46 1-.63-1.12-1 1.14 0-.6-.07.65-.09 1.57-.12-.34-.18-.76-.25h-.23l.14-.14c1.59 0-1.31-.07 0 0 1.17-.4 0-.84.47-1.27h-.4c.07-.11-.43-.21.21-.33s-1-.11-1.1-.14c-.71 0 .68-.2.61-.16s-1.65-.07-1-.24c1.34-.14-1.33-.24.17-.35h-.12c1.05-.24-.77-.25.18-.5h.21l-4.6.06-5 .53-4.06.58.93.56-1.57.58.58 1.1 1.14.06c-2 .23.31.51-1.12.72h1c.06.07-.55 0-.72.06.21.57 1.46 1.28.19 1.65-.65 0-.29.15-1 .1 1.17.29 1.13.46 1 .59h-.1l.17.09H30c.84.22 0 .2-.39.22h-.1c-.13.24.21.55.41.86s.24.6-.49.61c-1.57-.33.41.66-.92.39-.91-.33-.43.33-.04.59z"/><path class="cls-1" d="M29.26 83.82c-.36-.22-.26-.13 0 0zm10.77 3.73l-.01.01.54.21-.53-.22zm-.4 1.55c.15 0 .06 0-.09-.13s-.02.03.09.13zm-9.85-4.63a1.69 1.69 0 0 0 .41.27l-.05-.07zm4.77 2.94l.27.19a1.75 1.75 0 0 0-.27-.19zm31.19 72zm1.08 8.59l.49.09zm-1.44 1.17h-.06c.12.02.24.04.06 0zm-.04-4.53h-.1zm-.9-7.64h.12zm.34 0a.61.61 0 0 1-.32 0c-.26.07-.28.11-.15.13.3-.04.25-.13.47-.13zm-2.38-4.71h.12zm-11.95 11.44h-.07.07zm11.99-10.48l.46-.15zm4.88 14.82h.18zm-2.51 2.32l-.36-.07zm-9.26 2.87l.15.1-.27-.21a.69.69 0 0 0 .12.11zm6.78-1.66l.16.05c.17 0 .22-.05.24-.15l-.57-.17z"/><path class="cls-1" d="M48.88 168.32l1.13.38c.42.4-.7.08.11.56l-.23-.12c-.13-.06.41.21.59.35s0 .15-1.43-.61l-.1-.06s.22.14-.06 0l.64.35.79.53-.48-.29.16.1-.58-.39.82.56c.28.19.42.3 0 .05.92.64.54.4 1 .74l-.44-.31c.09.09.33.32.77.71 0 0 .47.34 1.09.75s1.39.85 1.91 1.16c-.32-.08.09.11.42.31l-.23-.17c.27.09.86.49 1 .57l-.17-.11.08.06-.23-.16c-.13-.09-.23-.16-.18-.15h.06c-.07-.08.06-.07.12-.06l.5.32c-.46-.34 0-.18.52 0a7.56 7.56 0 0 0 1.29.39c.71.27 0-.3.34-.24.27-.11.82.3 1.34.42s-.64-.28-.65-.35l.83.21c0 .12.36.23.58.31.17-.1 1.26.12.2-.41.59 0 1 .22 1.12.16a5.39 5.39 0 0 1-.63-.17c.51.13-.11-.09-.23-.11-.43-.3 2.26.2 1.06-.32l.22.09c-.89-.38-1.78-.68-2.25-1l.43.1-.36-.23a3.49 3.49 0 0 1 .66.22c-.37-.29.2-.28.37-.39l-2.54-.72c.61.09 1.85.26 1 0l.87.2c1.69.27-.64-.4-.13-.34l1 .15-.06.13a14.67 14.67 0 0 1 1.47.12h-.14c-.45-.16-.75-.32-.69-.4s-.48-.4.56-.34l-.94-.31h.61l.76.2c-.09.14.13.52.1.75l.34.1c0-.13-.25-.37-.16-.43a6 6 0 0 1 1.47.33l-.72-.28c0-.45 0-.45 1-.69l-.4-.05c-.2-.14-.4-.28.23-.16.19-.24.74-.42 1.75-.39l-.91-.23c.07 0 1.46.15.19-.14l-.38-.2c.08-.06-.43-.2.11-.19.43-.1-.82-.15-.26-.25.66.05-1.14-.28-.92-.34l1.33.13c.78 0-.53-.3-.48-.55a10.18 10.18 0 0 1 2.59.31 4.71 4.71 0 0 1-1.33-.42 7.43 7.43 0 0 1 1 .19c.6 0-.44-.15-.39-.25-.93-.17-2.42-.41-2.47-.45h-.3c-.48-.17-.7-.31-.22-.36l.47.07-.22-.15.6.07-.16-.2h-.17c-.07 0-.26-.21.06-.25h.34c1.07-.1-.27-.45-.36-.71l.68.11c.69 0-1-.14-.7-.2l.84.08c-1.1-.21.25-.1.67-.13l-1.1-.07.24-.1a8.3 8.3 0 0 1 2 .12l-.86-.17 1 .07c-1.13-.17.19-.05-.41-.23a4.53 4.53 0 0 0 .74 0l-1.36-.31.6.17-1.42-.13c-1.07-.21.17-.15-.22-.27l.42.09c-.34-.16.27-.12.59-.18a3.13 3.13 0 0 1-.84-.06c-.08-.05.5 0 .66 0-.95-.08-1.44-.21-1-.27h.35c-.15 0-.39-.06-.16-.09l1 .1-1-.15c.29 0-.47-.15.24-.1h.21l.28-.38h.84c-1.16-.1.45-.2-1-.26.8 0-.55-.31 1.09-.2.14-.27-1.43-.46-.62-.75 1.39-.08.94-.42 1.09-.62a18.71 18.71 0 0 1-1.55-1.07c1.94-.29-.7-.6.39-.9h-.77c1.22-.23-.3-.42.89-.74a2.85 2.85 0 0 1-.48-.08 4.53 4.53 0 0 1-.67.08c.34-.09-.09-.21.88-.26h.1c1-.06-.47-.19.37-.34l-1 .13.17-.15h.2c-2.37-.38.92-1-1.25-1.29 1.15-.07-.61 0 .63-.2 1.54-.34-.38-.23-.81-.28H64l.12-.22c1.59-.11-1.32 0 0 0 1.11-.7-.21-1.22.18-2l-.3.23c0-.18-.48-.27.12-.54s-1.07 0-1.15-.06c-.71 0 .6-.44.55-.37-.24-.1-1.66.16-1.12-.21 1.26-.47-1.42-.14 0-.61h-.12c.9-.65-.91-.29-.13-.93l.21-.07c-1.5.37-3 .8-4.42 1.3-1.51.75-3 1.47-4.56 2.18a52.2 52.2 0 0 1-3.74 1.69l.44-.11.48.07c-.49.28-1 .46-1.46.73l.36.43c.12.17.24.37.36.56l1.14-.06c-1.93.47.35.6-1 1l1-.07c.07.08-.54.12-.71.16a12.58 12.58 0 0 0 .75 1.17.8.8 0 0 1-.4 1.19c-.66.06-.28.28-1 .31 1.19.28 1.16.56 1 .79h-.11l.18.13h-.27c.85.19 0 .33-.39.45H50c-.24.83 1.42 2-.08 2.52-.81 0-.71.21-.58.45s.3.5-.39.45c-.48-.11-.59 0-.52.23a1.12 1.12 0 0 0 .45.54z"/><path class="cls-1" d="M49.84 169.39c-.36-.22-.22-.14 0 0zm11.06 2.75l-.01.01.56.15-.55-.16zm-.53 2.17c.17 0 .08-.09-.07-.15s-.03.07.07.15zm-9.91-4.46l.4.29-.06-.06a1.85 1.85 0 0 0-.34-.23zm4.59 3.22l.26.2a.81.81 0 0 0-.26-.2zm54.06-106.18zm1.56-8.43l-.46-.18zm1.61-.86c-.06-.03-.17-.07 0 0zm-.95 4.4h.09zm-2.12 7.61h-.12zm-.31-.14a.65.65 0 0 1 .3.13c.26.06.29 0 .19 0-.29-.14-.27-.07-.49-.13zm-.52 4.73l-.11-.06zm17-7.2h.07-.07zm-16.46 6.62l-.45-.17zm1.29-15.35l-.18-.08zm2.79-1.74l.35.12zm9.23-3.59h-.18l.32.12zm-6.72 2.67l-.15-.06c-.17 0-.22 0-.24.13l.56.2z"/><path class="cls-1" d="M129.21 58.14L128 58c-.33-.77.9-.68.15-1.5l.24.11c.29 0-2.25-.83 1.13-.73h.12s-.24-.11.08-.08l-.74-.06c-.26-.18-.78-.42-.82-.56a3.86 3.86 0 0 1 .55.13l-.1-.36.76.12c-.37-.22-1.94-.62-1-.62-1.11-.22-.61-.31-1.17-.44l.53.09a1.44 1.44 0 0 0-.84-.76s-2.45-.08-3.64-.28c.34-.1-.12-.09-.5-.15l.25.09a10.75 10.75 0 0 1-1.18-.17l.19.06h-.09l.27.09c.14 0 .26.08.21.09h-.07c.08.07-.05.12-.11.14l-.52-.21c1.06.41-1.82.05-1.89.14-.75-.11.1.3-.29.32s-.86-.16-1.38-.2.66.18.69.24l-.84-.09c0-.11-.4-.17-.62-.22s-1.25 0-.13.38c-.6 0-1-.13-1.13-.07a5.48 5.48 0 0 1 .64.12c-.52-.09.11.07.23.08.46.27-2.24-.09-1 .33l-.22-.07c.91.33 1.81.58 2.3.83l-.43-.09.37.21a2.85 2.85 0 0 1-.67-.19c.39.27-.18.29-.36.4l2.56.67c-.62-.06-1.87-.21-1.08.08l-.87-.2c-1.69-.28.64.42.12.36l-1-.17.06-.13a12.9 12.9 0 0 1-1.46-.17h.14c.45.17.74.34.68.43s.47.42-.57.3l.91.37h-.61l-.74-.26c.09-.14-.09-.53-.06-.74l-.34-.12c0 .12.25.37.15.42a5.32 5.32 0 0 1-1.45-.43l.7.33c-.05.42 0 .43-1 .55l.39.09c.19.16.37.32-.24.13-.2.2-.76.29-1.76.12l.86.34c-.06 0-1.41-.35-.2.1l.35.25c-.09 0 .39.27-.14.17h-.11.07c-.44 0 .79.27.22.28-.64-.16 1.09.46.85.48l-1.21-.37c-.78-.09.47.38.39.62a10.21 10.21 0 0 1-2.5-.79 4.86 4.86 0 0 1 1.24.65 7.06 7.06 0 0 1-1-.38c-.6-.08.4.23.34.31.88.34 2.28.88 2.33.93l.29.07c.44.26.62.45.14.4l-.45-.16.18.2-.57-.2.11.24h.17c.06.07.21.27-.12.24l-.32-.12c-1.06-.14.17.5.18.79l-.6-.2c-.68-.15 1 .39.63.37l-.8-.28c1 .47-.26 0-.68 0l1.05.35h-.26a8 8 0 0 1-1.88-.62l.79.39-.93-.32c1 .45-.2 0 .34.32a3.82 3.82 0 0 0-.7-.23l1.23.65-.54-.32 1.34.5c1 .49-.2.11.14.33l-.38-.21c.28.26-.29.06-.62 0a3 3 0 0 1 .8.29c.06.07-.48-.15-.64-.17.89.34 1.33.61.87.54l-.32-.13c.13.08.36.17.13.13l-1-.38.92.42c-.29-.05.41.29-.26 0l-.19-.1-.38.29-.8-.28c1.08.43-.49 0 .88.54-.77-.2.42.47-1.1-.14-.21.21 1.22.89.36.92-1.35-.38-1 .07-1.24.21a15.8 15.8 0 0 1 1.08 1.56c-1.91-.45.41.81-.71.68l.69.34c-1.21-.26.1.52-1.11.33a3 3 0 0 1 .41.27 4.09 4.09 0 0 1 .64.2c-.35 0 0 .24-.91-.12h-.08c-.92-.35.35.37-.47.14l1 .33-.21.06-.18-.1c2 1.37-1.23.45.57 1.72-1-.48.52.31-.65-.12-1.53-.43.22.36.58.61l.21.09-.21.14c-1.44-.67 1.17.59 0 0-1.29.07-.4 1.13-1.12 1.51l.39.12c-.13.11.26.47-.39.35s.88.6.93.66c.61.37-.74 0-.65 0 .13.2 1.44.83.79.79-1.28-.41 1 1-.37.42h.12c-1.08-.14.53.71-.46.62l-.2-.09 4.11 2.11 4.78 1.62 4 1-.4-1.48 1.85-.37.36-2.47-1-.56c2 .25.11-1.14 1.62-1.12l-.92-.36c0-.15.57.07.74.1.27-1.35-.46-3.12 1.12-3.85.65.12.42-.35 1.09-.2-1-.79-.83-1.19-.58-1.52h.1l-.11-.24.25.09c-.74-.5.18-.52.6-.64h.1c.69-1.38-.55-3.33 1.24-4.31 1.75-.14-.07-1.65 1.46-2 .89.3.74-1.54.35-1.84z"/><path class="cls-1" d="M128.73 55.31c.4.12.27.07 0 0zm-11.78-.2l.01-.01-.56-.15.55.16zm.31-2.06c-.15 0-.05.08.11.12s.01-.07-.11-.12zm10.96 1.18c.05 0-.19-.09-.47-.13a.49.49 0 0 1 0 .11c.15 0 .37.03.47.02zm-5.45-1.32l-.31-.11a.92.92 0 0 0 .31.11zM72.52 79.87zM75.1 69.7l-.46-.19zm1.61-.93h.05c-.11-.03-.22-.06-.05 0zM75.43 74l.08.06zm-3.23 9.07h-.11zm-.29-.18a.57.57 0 0 1 .27.16c.26.08.3.06.21 0-.28-.17-.27-.05-.48-.16zm-1.48 5.43l-.1-.08zm18.93-9.04s.04.02 0 0zm-18.25 8.43l-.42-.24zm3.53-18.21l-.17-.07zm2.8-2.06l.36.09zM87.54 62h-.17l.29.19a.44.44 0 0 0-.12-.19zm-7.45 3.87l-.16-.06c-.17 0-.23.08-.25.22l.56.18z"/><path class="cls-1" d="M93.91 67.94l-1.18-.22c-.31-.76.89-.57.17-1.35l.23.12c.14 0-.4-.23-.56-.42s.06-.35 1.66.09l.11.06s-.23-.14.08 0l-.7-.23c-.25-.18-.73-.49-.76-.61.12 0 .34.15.51.23l-.08-.27.71.31c-.34-.24-1.78-1-.91-.72-1-.5-.54-.4-1-.67l.49.23a2.09 2.09 0 0 0-.69-.84l-1.26-.48-2.14-.78c.37 0-.1-.12-.45-.26l.24.15c-.3 0-.93-.36-1.14-.39l.18.09-.08-.05a1.72 1.72 0 0 1 .25.14c.13.07.23.13.18.14h-.06c.06.1-.08.14-.15.16L87 62c1 .59-1.87-.12-2 0-.75-.17 0 .4-.4.42-.3.22-.86-.19-1.39-.24s.65.23.66.32l-.87-.03c0-.16-.37-.23-.6-.29-.17.16-1.31.09-.23.58-.64.07-1.08-.09-1.18 0a2.46 2.46 0 0 1 .65.11c-.53-.08.1.09.23.09.43.33-2.35.14-1.13.61l-.23-.08a18.87 18.87 0 0 1 2.28.89l-.43-.07.36.25a2.22 2.22 0 0 1-.67-.19c.36.33-.23.41-.43.59l2.59.59c-.64 0-1.92-.06-1.12.23l-.88-.16c-1.74-.14.62.48.09.47l-1-.11.07-.17a9.42 9.42 0 0 1-1.49 0h.14c.45.16.74.35.67.47s.46.48-.61.48l.93.35h-.63L79.7 67c.1-.19-.07-.68 0-1l-.35-.11c0 .16.24.45.13.53a4 4 0 0 1-1.48-.31l.71.32c-.08.56 0 .57-1 .85l.39.07c.19.17.38.34-.24.18-.22.28-.79.46-1.8.36l.87.31c-.07 0-1.43-.27-.2.14l.35.25c-.1.06.39.27-.14.21h-.12.08c-.45.06.79.25.21.3-.64-.14 1.1.44.87.48l-1.3-.32c-.78-.06.47.39.39.64a9.77 9.77 0 0 1-2.5-.76 5.18 5.18 0 0 1 1.24.63 7.06 7.06 0 0 1-1-.38c-.6-.09.4.22.34.3.88.35 2.28.9 2.32 1l.29.07c.44.28.62.46.12.45l-.49-.21.16.24L77 71l.1.29h.16c.06.07.19.32-.14.3l-.32-.13c-1.08-.1.12.61.1 1l-.63-.29c-.68-.14 1 .41.61.41l-.79-.3c1 .52-.28.06-.7 0l1 .36-.27.06a6.34 6.34 0 0 1-1.88-.64l.77.42-.92-.33c1 .49-.2 0 .32.37a4.43 4.43 0 0 0-.7-.25l1.19.74-.51-.37 1.32.54c1 .54-.22.14.11.39l-.37-.23c.26.3-.31.08-.64.06a2.29 2.29 0 0 1 .79.31c.06.08-.48-.16-.64-.17.88.36 1.3.67.84.61l-.29-.15c.13.08.35.19.12.15l-1-.42.9.47c-.3 0 .38.33-.28.05l-.18-.11-.43.37-.79-.31c1.07.48-.51.09.85.62-.77-.21.38.55-1.12-.11-.24.25 1.15 1 .26 1.08-1.34-.4-1.07.13-1.3.3a14.79 14.79 0 0 1 .91 1.83c-1.9-.49.32 1-.82.83l.67.39c-1.21-.3 0 .62-1.19.41a1.92 1.92 0 0 1 .38.31 3 3 0 0 1 .63.23c-.35-.06 0 .28-.92-.13l-.08-.06c-.89-.42.31.42-.5.16l1 .39-.23.07-.17-.12c1.82 1.62-1.33.52.31 2-1-.57.49.38-.65-.15-1.49-.52.18.43.5.74l.2.1-.24.16c-1.36-.82 1.11.72 0 0-1.34 0-.62 1.31-1.43 1.71l.37.16c-.15.13.19.56-.46.38s.78.75.81.83c.55.46-.75-.07-.65-.09.09.23 1.3 1 .64 1-1.22-.57.86 1.17-.47.46l.11.06c-1.07-.25.38.86-.61.66l-.18-.11 3.67 2.83 4.47 2.33 3.88 1.46c0-.66 0-1.32.07-2l2.07-.49c.35-1.1.7-2.19 1-3.27l-.93-.71c2.09.26.36-1.47 1.94-1.51l-.88-.42c0-.2.57.06.75.09.56-1.78.08-4 1.83-5 .66.1.49-.48 1.17-.34-.91-.94-.7-1.45-.39-1.89l.1.06-.09-.3a1.17 1.17 0 0 1 .26.1c-.71-.58.25-.67.7-.86l.09.06a4.16 4.16 0 0 0 .38-1.42c0-.25 0-.49.06-.74s0-.49.07-.81a4.26 4.26 0 0 1 1.32-3c1.81-.46 0-2.08 1.52-2.58.96.1.77-1.71.38-1.96z"/><path class="cls-1" d="M93.47 65.58c.37.19.24.12 0 0zm-11.85-.6l.02-.01-.58-.13.56.14zm.72-2.98c-.18.09-.09.13.07.17s.03-.08-.07-.17zm10.72 2.71s-.18-.13-.43-.25v.09zm-4.97-2.61l-.28-.18a.68.68 0 0 0 .28.18z"/></svg>